<svg xmlns="http://www.w3.org/2000/svg" viewBox="0 0 227 229"><style>.st0{fill:#f9a332}.st1{fill:#bf6700}.st2{fill:#6d184e}.st3{fill:#48c75a}.st4{fill:#b6e9bd}.st5{fill:#539256}.st8{fill:#fcaf15}.st9{fill:#d18126}.st10{fill:#f8ce36}.st11{fill:#fed78a}.st13{fill:#a4e3ad}.st18{fill:#fce69f}.st19{fill:#e99335}</style><path d="M192.2 103s16.6 21.9-26.2 50.5-102.4 38.1-114.3 7.3-.8-21.7 44.8-27 76-53.1 83.3-47.9c7.4 5.2 12.4 17.1 12.4 17.1z" class="st0"/><path d="M88.6 175.8c-12.9 0-23.8-3.1-30.8-9.8 3.1-1.5 5.5-3 7.6-4.2 2.3-1.4 4.2-2.6 5.4-2.6h.4c.6.2 1.2.8 1.9 2 2 3.4 4.7 5.3 7.7 5.3h.4c3.2-.2 6.1-2.5 7.8-6.2 1-2.2 2.4-3.6 4.1-4.1.6-.2 1.4-.3 2.1-.3 2.9 0 6.7 1.4 11.5 4.1h.1c2 1.2 4.2 1.9 6.8 2h.6c7.2 0 10.7-3.3 12.7-5.4.5-.5 1.4-1.3 1.6-1.3 0 0 .2 0 .8.6-2.4 2.9-7.4 8.4-15 8.4-3.3 0-7-1-11.3-3.7-1.9-1.2-3.8-1.7-5.5-1.7-4.9 0-8.4 4-4.9 7.6 1.4 1.5 4.2 2 7.4 2 5.2 0 11.5-1.3 14.8-2.1 6.5-1.6 13.1-3.7 19.6-6.3 1.2.5 2.4.8 3.6.8 1.1 0 2.2-.3 3.1-.9.8-.5 2-1.6 2.4-3.9 7.8-3.6 15.4-7.9 22.6-12.7 16.7-11.2 24.3-21.3 27.5-29.5 0 1.3-.1 2.7-.3 4.2-.4 2.5-1.2 5-2.4 7.5-4.2 7-11.7 15.1-24.7 23.8-24.5 16.3-54.3 26.4-77.6 26.4zm53.4-26.6c-.1-.2-.2-.3-.2-.5-.3-.6-.5-1.2-.7-1.8h.1c8.3 0 11.5-4.2 15.3-9.2 1.4-1.8 2.8-3.6 4.6-5.6 3.2-3.5 8.2-3.7 13-3.9 3.2-.1 6.2-.3 8.5-1.4-5.6 5.6-13 0-17.4 7-5 8-9.5 13.6-18.9 14.8-1.6.2-3 .4-4.3.6zm44.4-28.8V119c-.2-3.8-.2-6.4.2-7.6.2-.6.5-.8 2-1.5 1-.4 2.3-1 3.9-2 .2.7.4 1.5.6 2.4-6.2 1.6-3.8 3.1-6.7 10.1z" class="st1"/><path d="M178.5 87.3c-.4 0-1.5.3-3.9 1.9-2.7 1.9-6.3 5.1-10.4 8.8-15.1 13.6-37.9 34.1-67.5 37.5-10.8 1.3-19.6 1.7-26.8 2.1-11 .6-18.2.9-20.1 3.9-1.8 2.8.1 9.4 3.6 18.5 2.9 7.4 8.8 12.6 17.7 15.5 22.9 7.3 62.4-2.6 93.9-23.6 16.5-11.1 26.3-22.7 28.2-33.7 1.5-8.6-2.3-13.8-2.5-14-.1-.1-.2-.3-.2-.4-.1-.2-4.9-11.5-11.7-16.3 0-.1-.1-.2-.3-.2zm-89.9 94.4c-6.9 0-13.1-.9-18.6-2.6-10-3.2-16.7-9.2-20-17.7-4.2-10.9-6-17.7-3.3-21.9 3-4.6 10.1-5 23.1-5.6 7.1-.4 15.8-.8 26.5-2 28.4-3.3 50.7-23.3 65.4-36.6 9.9-8.9 15.3-13.8 19.2-11 7.2 5.1 12.2 16.1 12.9 17.7.8 1.2 4.6 7.3 3 16.6-2 12.3-12.1 24.5-29.8 36.4-15.4 10.3-33.6 18.5-51 22.9-9.8 2.5-19.1 3.8-27.4 3.8z" class="st2"/><path d="M43.9 141.3s-10.9-1.7-11.8 5.8c-1 7.4 11 4.5 10.9 10.3s-.3 13.3 12 8.1 15.6-11.8 19.5-5.1 10.2 5.5 13.1-.8 8.7-7.5 19.9-1c6 3.5 9.3-1.5 13.4-6.4 3.6-4.3 7.7-8.6 14.9-7.4 15.4 2.6 16-4.8 24.2-13.7s25.5.8 24.9-11.9c-.6-12.8.8-8 8.4-13.6s7.5-18.7-7.4-17.5c-15 1.1-52.2 55.2-142 53.2z" class="st3"/><path d="M185 108.4c.6-2.4 3.3-3.8 8.8-8.2 1-.8 2-2.1 2.8-3.4-.2 2.7-1.8 5.5-4.3 7.4-2.1 1.5-3.6 2.2-4.9 2.8-1 .5-1.8.9-2.4 1.4zM145.8 143.1c4.9-2.7 7.3-8.4 12.7-14.7 6.9-7.9 19.7-2.9 24.6-7.3-.1.9-.4 1.6-.9 2.1-1.4 1.6-4.8 1.7-8.3 1.9-5.2.2-11.1.5-15.2 4.9-1.9 2.1-3.4 4-4.8 5.8-2.6 3.5-4.6 6.1-8.1 7.3z" class="st4"/><path d="M48.1 165.6c-.9 0-1.6-.2-2.1-.5-1.7-1.2-1.7-4.8-1.6-7.7.1-3.9-3.6-5-6.2-5.9-3.5-1.1-4.9-1.8-4.6-4.2.2-1.3.7-2.3 1.7-3 1.3-1 3.1-1.4 4.8-1.5 4.7 7.4 12 11.6 20.5 11.6 1.1 0 2.2-.1 3.3-.2 10.5-1.4 21.1-3.7 31.6-6.8.4.6.8 1.1 1.2 1.7 1.1 1.5 2.1 2.9 3.2 4.3-1.7-.5-3.2-.7-4.7-.7-1.1 0-2.1.2-3.1.5-2.6.8-4.6 2.8-6 5.8-1.2 2.6-3.1 4.3-5.1 4.4h-.2c-1.8 0-3.6-1.3-5-3.7-1.2-2-2.4-3.1-3.9-3.5-.4-.1-.8-.1-1.1-.1-2.1 0-4.2 1.3-7 3-2.4 1.5-5.5 3.3-9.5 5-2.6 1-4.6 1.5-6.2 1.5zm93.2-21.9h-1.1c-.7-4-.6-8.7.6-13.6 13.7-6.4 26.5-13.9 38.2-22.4 5.7-4.3 9-10.1 9.7-16.6.1 0 .2 0 .3-.1.8 4.9 0 11.3-6.5 17.3-13.1 12.1-27.9 15.3-34.5 22.2-4 4.1-4.5 9.5-4.2 13-.8.1-1.6.2-2.5.2z" class="st5"/><path d="M41.4 142.7c-2 0-4.5.3-6.1 1.5-1 .7-1.5 1.7-1.7 3-.3 2.4 1.1 3.1 4.6 4.2 2.7.8 6.3 2 6.2 5.9-.1 2.9-.2 6.5 1.6 7.7 1.4 1 4.2.6 8.2-1.1s7-3.5 9.5-5c3.3-2 5.7-3.5 8.2-2.9 1.5.4 2.7 1.5 3.9 3.5 1.5 2.5 3.3 3.8 5.2 3.7 2-.1 3.9-1.7 5.1-4.4 1.4-3 3.4-5 6-5.8 3.9-1.3 9.2.1 16.2 4.1 4.2 2.4 6.4 0 10.4-4.9 3.8-4.7 8.6-10.6 17.3-9.1 11 1.9 13.5-1.4 18-7.4 1.3-1.8 2.9-3.7 4.8-5.8 4.1-4.5 10-4.7 15.2-4.9 3.5-.2 6.9-.3 8.3-1.9.8-.8 1.1-2.1 1-4-.4-9 .1-10.4 4.2-12.2 1.2-.5 2.8-1.2 4.9-2.8 3.5-2.5 5.2-6.9 3.9-10.2-1.2-3.2-4.8-4.8-10.3-4.4-3.7.3-9.6 4.8-17.2 10.4-10.8 8.1-25.5 19.1-45.9 28-24 10.5-50.6 15.5-79 14.9h-.2c-.6 0-1.4-.1-2.3-.1zm6.7 26.1c-1.5 0-2.8-.4-3.8-1.1-3.2-2.2-3.1-6.8-3-10.5 0-1.2-1-1.8-4-2.7s-7.5-2.4-6.8-7.7c.3-2.2 1.3-3.9 2.9-5.1 3.7-2.8 9.7-2.1 10.6-2 64.5 1.4 101-25.9 122.8-42.2 8.6-6.4 14.3-10.7 18.9-11 9.8-.8 12.7 4.3 13.5 6.5 1.7 4.7-.4 10.5-5.1 13.9-2.4 1.7-4.2 2.5-5.5 3.1-1.5.7-1.8.8-2 1.5-.4 1.2-.4 3.8-.2 7.6.1 2.7-.5 4.8-1.8 6.3-2.3 2.6-6.3 2.7-10.5 2.9-4.8.2-9.8.4-13 3.9-1.8 1.9-3.2 3.8-4.6 5.6-4.6 6.1-8.3 10.8-21.1 8.6-6.9-1.2-10.7 3.5-14.3 8s-7.7 9.5-14.5 5.6c-6-3.5-10.6-4.8-13.6-3.8-1.7.6-3.1 1.9-4.1 4.1-1.7 3.7-4.6 6.1-7.8 6.2-3.1.2-6-1.7-8.1-5.3-.7-1.2-1.3-1.8-1.9-2-1.1-.3-3.2 1-5.7 2.5s-5.7 3.5-9.9 5.2c-2.9 1.3-5.4 1.9-7.4 1.9z" class="st2"/><path d="M160.2 61.5c-1.9.8-3.6 2-5 3.6-8.3 5.8-26.4 17.4-49.4 26.6-22.9 9.4-44 13.6-54 15.2-2.1-.2-4.1.1-6.1.9-8.8 3.6-12 16.5-7.1 28.9s14.7 17.2 24.9 16c22.7-3.1 43.1-9.7 59.7-16.8 16.9-6.4 36.1-15.8 54.7-29.4 8.2-6.2 12-16.5 7.1-28.9-4.8-12.5-16-19.7-24.8-16.1z" style="fill:#db2839"/><path d="M60.5 151.2c-9.1 0-16.4-5.4-20.3-15.2-.3-.7-.6-1.5-.8-2.2.6-.2 1.2-.4 1.9-.6-.5 2.1-.5 4.2.6 6s3.2 2.7 6.3 3c.5 0 .9.1 1.3.1 6.4 0 10.6-4.6 13.7-7.9 1.9-2.1 3.7-4 5.1-4 .9 0 1.9.7 3 2.1 4 4.8 9.3 7.4 15 7.4h.8c.7 0 1.4-.1 2-.2 1.6 1.7 3 3.4 4.3 5.1-10 2.8-20 5-30 6.3-1 0-2 .1-2.9.1zm7.3-17c-.2 0-.5.1-.7.4-.8 1.2-2.5 2.8-4.3 4.4-1.2 1-.8 3 .6 3.5 2.6 1 5.4 1.5 8.3 1.5 1 0 2-.1 3.1-.2h.1c2-.3 2.5-3 .7-3.9-4.5-2.3-6.5-5.7-7.8-5.7zm74.2-8.3c1.9-5.5 5.1-11 9.8-15.9.7.1 1.5.1 2.2.1.6 0 1.3 0 1.9-.1-1.7 1.9-3.1 3.8-4.3 5.5-1.1 1.5.1 3.3 1.6 3.3.3 0 .6-.1.9-.2 4.4-2.1 8.9-4.5 13.4-7-8 5.2-16.5 10-25.5 14.3zm24.3-25.6c.1-.3.2-.7.2-1 7.5-4 13.8-6.2 18.8-7.5-.1.4-.1.8-.2 1.2-7 .5-13.4 3.4-18.8 7.3z" style="fill:#a92142"/><path d="M50.6 108.4c-1.5 0-2.9.3-4.2.8-3.8 1.5-6.5 5.1-7.8 10-1.3 5.1-.7 11.1 1.5 16.8 4.3 10.8 12.7 16.3 23.2 15 19.7-2.7 39.6-8.3 59.3-16.7h.1c19.9-7.6 38.2-17.4 54.3-29.2 8.4-6.4 10.8-16.2 6.5-27-4.5-11.6-14.7-18.4-22.7-15.1l-.6-1.5.6 1.5c-1.7.7-3.1 1.7-4.4 3.2l-.3.3c-8.7 6.1-26.8 17.6-49.7 26.7-22.9 9.3-43.8 13.6-54.3 15.3h-.4c-.4-.1-.7-.1-1.1-.1zm9.9 46c-10.4 0-19-6.2-23.3-17.2-2.5-6.3-3.1-13-1.7-18.7 1.5-6 4.9-10.3 9.7-12.2 2.1-.8 4.3-1.2 6.6-1 10.4-1.7 31-5.9 53.4-15 22.5-9 40.3-20.3 49-26.3 1.5-1.7 3.4-3 5.4-3.9 9.6-3.9 21.7 3.7 27 16.9 4.8 12.1 1.9 23.6-7.6 30.8-16.4 11.9-34.9 21.9-55.1 29.6-19.9 8.5-40.1 14.2-60.1 16.9-1.1 0-2.2.1-3.3.1z" class="st2"/><path d="M41.6 121.2s-10.7 4.4-13.4 11.8c-1.6 4.4 2.9 2 9.8-.5 4.7-1.7 10.5-3.4 16.2-2.9 5.2.5 7.2-1.1 8.7-2.7 2.5-2.7 3.3-5.4 15.7 2 19.6 11.7 21.4 31.1 34.8 31.4 5.4.1 8.4-1.6 10.5-3.3 3.1-2.6 4-5.2 7-1.5 5 6.2 14.5 5.1 9.3-6.1s-1.9-35.8 21.8-49.4 36.4-10.7 37.5-12.6c1.1-2-4.2-12.1-21-12.4s-59.1 43.1-136.9 46.2z" class="st8"/><path d="M114.1 158.7h-.5c-6.2-.2-9.6-4.9-14.3-11.5-1.9-2.7-4.1-5.6-6.6-8.6 3.3-1.3 6.3-3.5 8.5-6.6 2.1-2.9 3.8-4 6-4 2.1 0 4.7 1 8.2 2.5 2.2.9 4.8 2 7.8 2.9 1.9.6 3.8.9 5.6.9 3.2 0 6.2-1 8.6-2.9-.3.6-.6 1.2-.9 1.9-2.9 1.6-5.7 2.1-8.4 2.1-3.9 0-7.6-1.2-10.9-2.4s-6.2-2.4-8.4-2.4c-1.3 0-2.3.4-3.2 1.3-3.1 3.4-6.1 6.8-8 7.8 5.5 7.6 8.9 13.9 16.4 14.1h.5c5.1 0 8-1.9 10-3.9 2-1.9 3-3.9 4.3-3.9.7 0 1.4.5 2.4 1.7 1.8 2.2 4.1 3.5 6.2 3.7.9 2.8.8 4.7 0 6-1.6-.2-3.5-1.3-4.9-3.1-.9-1.1-2.1-2.3-3.7-2.4h-.2c-1.5 0-2.7 1.1-3.8 2.2-2.1 2.1-4.8 4.6-10.7 4.6zm-84.4-24.9c0-.1 0-.1.1-.2 1-2.7 3.2-5 5.5-6.8 1.4 0 3-.1 4.4-.3.9-.1 1.8-.1 2.6-.2H42.9c.1.5-.4 2-.7 3.1-2.9.8-5.6 1.8-7.9 2.7-1.6.7-3.5 1.4-4.6 1.7z" class="st9"/><path d="M54.5 129.7c8.5.7 8.3-4.2 11.5-5.3-6.1-1.4-4.5 4.5-11.5 5.3zM28.1 135.1c1.4 2.1 11.7-4.8 22.6-5.5-8.9-.6-18 4-22.6 5.5z" class="st10"/><path d="M137.9 151.6h-.6c-.2-.7-.5-1.4-.9-2.2-1.8-3.9-2.5-10 0-16 .2-.1.4-.2.6-.4-.9 6.4-.3 12.5 1.9 17.1.2.5.4.9.6 1.3-.5.1-1 .2-1.6.2z" class="st11"/><path d="M137.9 157.6c-.2 0-.4 0-.7-.1.8-1.2.9-3.2 0-6h.6c.6 0 1.1-.1 1.6-.3 1.1 2.9 1.1 5.1-.1 5.9-.3.4-.8.5-1.4.5zm-1.5-24.3c.3-.6.5-1.2.9-1.9-.1.5-.2 1-.2 1.5-.3.2-.5.3-.7.4z" style="fill:#e8c093"/><path d="M142.7 116.7c-.2-1.5-.5-3.1-1-4.7-.7-2.3-.3-2.8-.3-2.8.2-.2.7-.3 1.3-.3 1.3 0 3.1.3 4.5.5.2 0 .4.1.6.1-2 2.4-3.7 4.8-5.1 7.2z" class="st9"/><path d="M67.3 122.6c2.5 0 6.1 1.3 12.2 5 9.7 5.8 15.3 13.5 19.7 19.6 4.8 6.6 8.2 11.4 14.3 11.5 6.3.2 9.1-2.5 11.1-4.4 1.2-1.2 2.4-2.3 4-2.2s2.8 1.3 3.7 2.4c2.3 2.8 5.6 3.7 7 2.8s1.2-3.6-.4-7.2c-3-6.5-3-16.1 0-25 2.6-7.7 8.6-18.5 22.4-26.5 17.1-9.8 28.6-11.2 34.2-11.8 1-.1 2-.2 2.6-.4-.1-.5-.5-1.6-1.7-3.1-1.7-2-6.8-6.5-17.8-6.7-5.1-.1-13.2 4.4-24.5 10.7-23.8 13.3-59.7 33.3-112.1 35.5-1.5.7-10.1 4.7-12.2 10.7 0 .1-.1.2-.1.2 1.1-.2 3-1 4.7-1.6 5.3-2 12.7-4.8 20.1-4.1 5.1.5 6.4-1.1 7.8-2.7s2.7-2.7 5-2.7zm46.8 39.4h-.6c-7.7-.2-12-6.1-16.8-12.9-4.5-6.2-9.6-13.3-18.7-18.8-5-3-8.4-4.4-10.4-4.5-1.3 0-1.8.4-2.8 1.6-1.6 1.9-3.9 4.4-10.5 3.8-6.7-.6-13.6 2-18.7 3.9-4.5 1.7-6.9 2.6-8.4 1.1-1.3-1.2-.6-3.2-.3-3.9 2.9-8 13.8-12.6 14.3-12.8.2-.1.4-.1.5-.1 51.8-2.1 87.4-21.9 110.9-35.1 11.7-6.5 20.1-11.2 26.1-11.1 12 .2 19 5.3 21.7 10 .6 1.1 1.6 3.2.7 4.8-.7 1.3-2.2 1.5-5.1 1.8-5.3.6-16.5 2-32.9 11.4-21.9 12.6-26.4 36-21.1 47.3 3.5 7.5.6 10.4-.8 11.3-3.1 2-8 .5-11.2-3.5-1-1.2-1.4-1.3-1.4-1.3-.3 0-1.1.8-1.6 1.3-2.2 2.3-5.7 5.7-12.9 5.7z" class="st2"/><path d="M125.9 142s-4.9 9.1-12 8c-5.5-.8 3.7.2 6-6.4 2.7-7.8 7.4-3.8 6-1.6z" class="st10"/><path d="M48.3 104.7s-19.2 1.1-21.5 11.8 7.7 8.6 15.5 8.2c7.7-.4-7.3 14.5 6.1 15.8 5.6.5 9.3-2.7 12.4-5.9 4.2-4.5 7.1-9 11.9-3.3 8.1 9.7 20.9 8.6 27.2-.2 6.3-8.9 11.5-3.2 23.8.8s20.7-6.5 16.7-19.4c-2-6.4 2.3-5.5 7.8-4.6 5.6.9 12.5 1.8 15.6-4.9 6.1-13.3-6.9-15.6 8.6-18.8S194.5 80 192 71.4c-2.5-8.5-8.4-14.9-28-6.4-19.8 8.5-37.5 45.4-115.7 39.7z" class="st3"/><path d="M45.2 130.8c.8-2.6 1.5-4.8.3-6.4-.6-.8-1.6-1.2-3-1.2h-.4c-.9 0-1.8.1-2.7.2-1.6.1-3.3.3-4.9.3H34c1.1-3.9 3.1-7.7-.5-7.7h-.3c-1.5.1-3.1.2-4.7.3.8-2.8 3.1-4.8 5.7-6.2.3 1.6.7 3.1 1.1 4.7 6.4 3.3 13.3 5.5 20.5 6.7-2.9 2.4-5.9 7.2-10.6 9.3zm32.1-1.5c-1.8 0-3.6-.3-5.4-.9-1-.7-1.9-1.2-2.9-1.3-2-1.1-3.8-2.6-5.5-4.6 0 0 0-.1-.1-.1 2.3.2 4.6.3 6.9.3 7.1 0 14.5-.8 21.9-2.4-.5.6-1.1 1.2-1.6 2-3.1 4.5-8.1 7-13.3 7zm42.4-5.4c-1.6 0-3.3-.3-5.1-.9-5.7-1.8-9.8-4-13.3-5 5.6-1.6 11.3-3.6 16.9-6h.7c.1 0 .1 0 .1-.1h.1c.1 0 .2-.1.3-.1.2-.1.4-.2.7-.3.1 0 .2-.1.3-.1s.2-.1.3-.1.2-.1.3-.1h.1c.1 0 .1-.1.2-.1h.2s.1 0 .1-.1h.2s.1 0 .1-.1h.4c.1 0 .1-.1.2-.1h.1c3.1-1.4 6.1-2.9 9-4.5 2.4 9.4-3.1 17.6-11.9 17.6zm25.4-24.2c-1.1 0-2.2-.1-3.3-.2 5.3-3.5 10.1-7.3 14.5-11.4-.1 1.7-.6 3.7-1.7 6.1-2 4.4-5.6 5.5-9.5 5.5zm23.5-25.4c2.4-3.3 4.5-6.8 6.3-10.3-.1-.3-.2-.5-.4-.8 1.7-.3 3.3-.5 4.7-.5s2.6.2 3.7.5c1.9 7-3 8.7-14.3 11.1z" class="st5"/><path d="M86.3 136.5h-.2c2.8-1.3 5.4-3.3 7.3-6 2.6-3.6 5-5 7.7-5 .6 0 1.2.1 1.9.2-1.6.8-3.1 2.2-4.6 4.4-2.7 3.9-6.9 6.2-11.5 6.4h-.6zM129.7 131.1c6.2-2.9 8.6-10.8 6.7-20.3-.7-3.8.9-4.7 3.7-4.7h.3c-.5.2-.9.5-1.3.9-1.4 1.7-.9 4.2-.4 5.9 1.8 6 .9 11.8-2.6 15.2-1.7 1.8-3.9 2.8-6.4 3zm24.5-24.2h-1.1c3.3-.5 6.3-2.1 8.1-6.1 6.4-14.1-7.3-16.5 9.1-19.9 11.2-2.3 18.1-3.5 20.4-7 .2 1.4-.1 2.2-.4 2.7-1.6 2.7-7.7 3.9-16.9 5.8l-1.5.3c-5.3 1.1-7.6 2.1-8.6 3.8-1 1.6-.6 3.2-.1 4.9.6 2.6 1.4 5.7-.9 11-1.7 3.4-4.5 4.5-8.1 4.5z" class="st13"/><path d="M42.6 123.1c1.4 0 2.4.4 3 1.3 1.2 1.6.5 3.9-.3 6.5-.8 2.4-1.6 5.1-.7 6.5.6.9 1.9 1.4 3.9 1.6 5.6.5 9.2-3.4 12.4-6.8 2.4-2.6 4.7-5.1 7.6-5.1 1.8 0 3.6 1.1 5.4 3.2 3.6 4.3 8.3 6.5 13.2 6.3 4.6-.2 8.7-2.5 11.5-6.4 5.5-7.8 10.8-5.6 18.1-2.6 2.2.9 4.7 1.9 7.5 2.9 4.8 1.6 9.1.8 12.1-2.2 3.4-3.4 4.4-9.2 2.6-15.2-.5-1.7-1.1-4.2.4-5.9 1.7-2 5-1.5 8.7-.8 6.7 1.1 12 1.5 14.4-3.9 2.4-5.2 1.6-8.4.9-11-.4-1.7-.8-3.4.1-4.9 1.1-1.7 3.4-2.7 8.6-3.8l1.5-.3c9.2-1.9 15.3-3.1 16.9-5.8.4-.7.8-1.9 0-4.6-1.3-4.3-3.1-6.9-5.9-8.2-4.2-2-10.9-1.1-20 2.8-4.7 2-9.3 5.8-14.8 10.2-8.5 6.8-19.1 15.4-34.9 21.6-18.5 7.3-40.3 9.9-66.5 8-1.4.1-18 1.5-20 10.5-.5 2.5-.4 4.2.5 5.2 1.7 2 6.4 1.6 10.6 1.3.9-.1 1.8-.1 2.7-.2.2-.2.3-.2.5-.2zm6.9 19.1c-.4 0-.9 0-1.3-.1-3.1-.3-5.2-1.3-6.3-3-1.8-2.7-.6-6.4.3-9.3.4-1.1.9-2.8.8-3.5-.1 0-.3-.1-.7 0-.9 0-1.7.1-2.6.2-5.2.4-10.5.8-13.3-2.4-1.6-1.8-2-4.4-1.2-8 2.5-11.8 22.2-13 23-13.1h.2c58.2 4.2 81.9-14.9 99.3-28.9 5.6-4.5 10.5-8.4 15.5-10.6 10-4.3 17.4-5.2 22.6-2.8 3.6 1.7 6.1 5 7.6 10.2.9 3 .8 5.3-.4 7.2-2.3 3.9-8.6 5.2-19 7.3l-1.5.3c-3.9.8-6.1 1.6-6.6 2.3-.2.4 0 1.2.3 2.4.7 2.7 1.7 6.8-1.1 13.1-3.7 8-12.2 6.6-17.8 5.7-2.1-.3-5.3-.9-5.8-.2 0 0-.4.5.3 2.8 2.2 7.2 1 14.1-3.4 18.4-3.8 3.8-9.4 4.9-15.4 3-3-1-5.5-2-7.8-2.9-7.2-3-10.2-4.2-14.3 1.5-3.3 4.7-8.4 7.5-13.9 7.7-5.9.2-11.5-2.4-15.7-7.4-1.1-1.4-2.2-2.1-3-2.1-1.5 0-3.2 2-5.1 4-3.1 3.6-7.2 8.2-13.7 8.2z" class="st2"/><path d="M118.1 112.1c25.8-10.9 46.3-27.5 56.8-48.1-11.6-25.4-36.9-43.1-66.4-43.6-40.9-.7-74.9 32.5-75.7 73.8-.1 7.1.7 14 2.4 20.5 23.3 11.8 53.1 9.9 82.9-2.6z" class="st0"/><path d="M118.7 21.3zm-.1-.1zm0 0zm-.1 0zm0 0zm-.1 0zm-.2 0zm-.1 0zm0 0zm0 0zm-.1 0zm0 0zm-.1 0zm0-.1zm0 0zm-.1 0zm0 0zm-.1 0zm0 0zm0 0s-.1 0 0 0c-.1 0 0 0 0 0zm-.1 0zm0 0zm-.1 0zm0 0zm-.1 0zm0 0zm0 0s-.1 0 0 0c-.1 0 0 0 0 0zm-.1 0zm0 0zm-.1 0zm0-.1zm0 0c-.1 0-.1 0 0 0-.1 0-.1 0 0 0zm-.1 0zm0 0h-.3.3zm-.3 0zm0 0zm-.1 0zm0 0c-.1 0-.1 0 0 0-.1 0-.1 0 0 0zm-.1 0zm0 0c-2.3-.3-4.6-.5-6.9-.5 2.3 0 4.6.2 6.9.5zm-6.9-.6c-.1 0-.1 0 0 0-.1 0-.1 0 0 0zm-.1 0zm0 0s-.1 0 0 0c-.1 0 0 0 0 0zm-.1 0zm0 0zm-.1 0zm0 0zm0 0h-.3.3zm-.3 0zm0 0c-.1 0-.1 0 0 0-.1 0-.1 0 0 0zm-.1 0zm0 0s-.1 0 0 0c-.1 0 0 0 0 0zm-.1 0zm0 0zm-.1 0zm0 0zm0 0c-.1 0-.1 0 0 0-.1 0-.1 0 0 0zm-.1 0zm0 0s-.1 0 0 0c-.1 0 0 0 0 0zm-.1 0zm0 0zm-.1 0h-.1.1zm-1.7 0h.3-.3z" style="fill:#fff6af"/><path d="M40.4 62.8c12-24.8 37.2-42 66.1-42.4h2.3c2.3.1 4.6.3 6.9.5H116.4c23.3 3.6 43 18.1 53.9 38.2-12.7-17.9-32.4-30.3-55.1-33.1-.5 2.8-5 4.9-10.5 4.9-5.4 0-9.9-2.1-10.5-4.8C80.8 28 68.5 33.2 58 41c0 0 0-.1.1-.1l-.3.3c-5.5 6.1-12.2 13.3-17.4 21.6z" style="fill:#fcd199"/><path d="M118.1 112.1s.1 0 0 0c.1 0 0 0 0 0zm.1-.1zm.1 0zm0 0c.1 0 .1 0 0 0 .1 0 .1 0 0 0zm.1-.1s.1 0 0 0c.1 0 0 0 0 0zm.1 0zm.1 0zm0-.1c.1 0 .1 0 0 0 .1 0 .1 0 0 0zm.1 0c.1 0 .1 0 .1-.1 0 .1 0 .1-.1.1zm.2 0zm0-.1c.1 0 .2-.1.3-.1-.1 0-.2.1-.3.1zm.3-.1c.2-.1.4-.2.7-.3-.2.1-.4.2-.7.3zm.7-.3c.1 0 .2-.1.3-.1-.1 0-.2.1-.3.1zm.3-.1c.1 0 .2-.1.3-.1-.1 0-.2 0-.3.1zm.3-.2c.1 0 .2-.1.3-.1-.1.1-.2.1-.3.1zm.3-.1s.1 0 0 0c.1 0 0 0 0 0zm.1 0c.1 0 .1-.1.2-.1-.1 0-.1 0-.2.1zm.2-.1s.1 0 0 0c.1 0 0 0 0 0zm.1-.1zm.1 0s.1 0 .1-.1c0 .1-.1.1-.1.1zm.1-.1s.1 0 0 0c.1 0 0 0 0 0zm.1 0zm.1 0s.1 0 .1-.1l-.1.1zm.1-.1c.1 0 0 0 0 0zm.1 0zm.1-.1zm0 0s.1 0 0 0c.1 0 0 0 0 0zm.1 0zm.1-.1zm.1 0zm0 0zm.1-.1zm.1 0zm.1 0zm0-.1zm.2 0zm.1-.1z" style="fill:#5b6d54"/><path d="M70.4 122.6c-5.7 0-11.3-.5-16.6-1.6-2.6-.7-5.2-1.4-7.7-2.4-4.6-1.7-8-5.9-8.7-10.8-.6-4.2-.9-8.5-.9-12.9.4-21.1 9.4-40 23.7-53.5.1-.1.2-.1.3-.2-5.5 10.3-8.7 21.8-8.9 34v.7c-.1 12.9 8.9 23.9 21.5 26.3 5.2 1 10.5 1.5 16 1.5 15.2 0 31.5-3.7 47.7-10.5 11.5-4.9 22-10.9 31.1-17.9-10.6 14.3-26.3 26.1-45.2 34.8h-.1c-.1 0-.1.1-.2.1h-.4s-.1 0-.1.1h-.2s-.1 0-.1.1h-.2c-.1 0-.1.1-.2.1h-.1c-.1 0-.2.1-.3.1s-.2.1-.3.1-.2.1-.3.1c-.2.1-.4.2-.7.3-.1 0-.2.1-.3.1h-.1s-.1 0-.1.1H118.2c-16.4 7.6-32.6 11.3-47.8 11.3z" class="st1"/><path d="m60.1 41.5.3-.3s0 .1-.1.1c0 .1-.1.1-.2.2z" style="fill:#d19982"/><path d="M70.8 49.1c-.8 2.4-2.1 4.2-3 4-.8-.3-.9-2.5-.1-5 .8-2.4 2.1-4.2 3-4 .8.3.9 2.2.3 4.5l-.2.5zM83.4 50.7c-.4 2.5-1.5 4.5-2.4 4.3s-1.2-2.4-.8-4.9 1.5-4.5 2.4-4.3c.8.1 1.2 2.1.9 4.5l-.1.4zM99.6 50.2c.4 2.5-.1 4.7-1 4.9-.9.1-1.9-1.9-2.3-4.4s.1-4.7 1-4.9c.8-.1 1.8 1.6 2.2 4l.1.4zM113.2 44.9c1.3 2.2 1.8 4.4 1.1 4.8-.8.5-2.5-.9-3.8-3.1s-1.8-4.4-1.1-4.8 2.3.8 3.6 2.7l.2.4zM123.6 36.2c1.8 1.8 2.8 3.8 2.1 4.5-.6.6-2.6-.3-4.4-2.1s-2.8-3.8-2.1-4.5c.6-.6 2.4.2 4.1 1.8l.3.3z" class="st18"/><path d="M72.5 90.6c-.8 0-1.5-.7-1.5-1.5 0-.9.7-1.5 1.5-1.5s1.5.7 1.5 1.5-.7 1.5-1.5 1.5zM97.2 75.9c-.8 0-1.5-.7-1.5-1.5 0-.9.7-1.5 1.5-1.5s1.5.7 1.5 1.5-.7 1.5-1.5 1.5z" class="st1"/><path d="M102.2 92c-.8 0-1.5-.7-1.5-1.5 0-.9.7-1.5 1.5-1.5s1.5.7 1.5 1.5c.1.8-.6 1.5-1.5 1.5zM117 73.1c-.8 0-1.5-.7-1.5-1.5 0-.9.7-1.5 1.5-1.5s1.5.7 1.5 1.5c.1.8-.6 1.5-1.5 1.5z" class="st19"/><path d="M132.8 85.7c-.8 0-1.5-.7-1.5-1.5 0-.9.7-1.5 1.5-1.5s1.5.7 1.5 1.5c.1.9-.6 1.5-1.5 1.5zM134.9 62.4c-.8 0-1.5-.7-1.5-1.5 0-.9.7-1.5 1.5-1.5s1.5.7 1.5 1.5-.7 1.5-1.5 1.5zM145.9 49.1c-.8 0-1.5-.7-1.5-1.5 0-.9.7-1.5 1.5-1.5s1.5.7 1.5 1.5-.6 1.5-1.5 1.5z" class="st1"/><path d="M72.8 74.6c-.8 0-1.5-.7-1.5-1.5 0-.9.7-1.5 1.5-1.5s1.5.7 1.5 1.5-.7 1.5-1.5 1.5z" class="st19"/><path d="M160.9 63.7c-.8 0-1.5-.7-1.5-1.5s.7-1.5 1.5-1.5 1.5.7 1.5 1.5-.6 1.5-1.5 1.5z" class="st1"/><path d="M151 80.6c-.8 0-1.5-.7-1.5-1.5s.7-1.5 1.5-1.5 1.5.7 1.5 1.5-.7 1.5-1.5 1.5z" class="st19"/><path d="M107.3 22c-39.6 0-72.2 32.1-72.8 72.2-.1 4.2.2 8.5.9 12.7.7 4.3 3.6 7.9 7.6 9.4 20.8 7.8 47.3 5.8 74.6-5.7 23.1-9.8 41.1-23.7 52-40.4 2.5-3.8 2.6-8.8.3-12.6-13.1-21.9-36-35.2-61.2-35.6h-1.4zM70.4 124.2c-10.3 0-19.8-1.6-28.5-4.9-5.1-1.9-8.8-6.5-9.6-11.9-.7-4.3-1-8.8-.9-13.2.4-20.4 8.6-39.5 23.2-53.7 14.6-14.3 33.8-21.9 54-21.6 13.1.2 26 3.8 37.2 10.5 10.9 6.5 20.2 15.7 26.7 26.6 2.9 4.9 2.8 11.2-.3 16.1-11.2 17.2-29.7 31.6-53.4 41.6-13.8 5.8-27.3 9.3-40.2 10.3-2.8.1-5.6.2-8.2.2z" class="st2"/><path d="M153.1 171.6c-.9 5-5.7 8.3-10.6 7.4-5-.9-8.2-5.7-7.3-10.7.5-2.9 1.7-2.3 3.6-1.6 1.3.5 3 .9 5.1.2 6-2.3 10.1-.3 9.2 4.7z" class="st8"/><path d="M142.4 179zm6.1-6.3c.2-.6.4-1.2.5-1.8.4-2.3-.2-4-1.7-4.9h.9c3.4 0 5.4 2 4.8 5.6.2-1.1.1-2.1-.2-2.9-.9 1.5-2.5 3-4.3 4zm4.6-1.1zm0 0z" class="st11"/><path d="M142.5 179c-.1 0-.1 0 0 0-.1 0-.1 0 0 0zm10-5.4c.3-.6.5-1.3.6-1.9-.1.6-.3 1.3-.6 1.9z" class="st9"/><path d="M135.1 168.3z" class="st2"/><path d="M142.4 179c-4.9-.9-8.2-5.7-7.3-10.7.3-1.5.7-2.1 1.4-2.2.9 3.3 3.4 6.7 6.9 7.4.4.1.8.1 1.3.1 1.3 0 2.6-.4 3.8-1-1.3 3.3-4.5 5.6-8.1 5.7.7.4 1.3.6 2 .7zm10.7-7.4zm0 0z" class="st9"/><path d="M144.2 179.2c3.6 0 6.9-2.2 8.3-5.6-1.4 3.3-4.7 5.5-8.3 5.6z" style="fill:#d3b392"/><path d="M144.1 179.2c-.6 0-1.1-.1-1.7-.2-.7-.1-1.3-.3-2-.6 3.6-.2 6.7-2.4 8.1-5.7 1.8-.9 3.4-2.4 4.4-4 .3.8.4 1.8.2 2.9-.1.7-.3 1.3-.6 1.9-1.4 3.4-4.7 5.6-8.4 5.7.1 0 0 0 0 0z" style="fill:#d29d78"/><path d="M136.9 167.8c-.1.2-.1.4-.2.8-.4 2 .1 4 1.2 5.7s2.9 2.8 4.8 3.2c2 .4 4-.1 5.6-1.2 1.7-1.1 2.8-2.9 3.1-4.9.2-1 .2-2.3-.7-3.1-1.2-1-3.6-1-6.4.1-2.9 1.1-5.1.2-6.6-.3-.2-.2-.5-.3-.8-.3zm7.2 13c-.7 0-1.3-.1-2-.2-2.8-.5-5.3-2.1-6.9-4.5s-2.2-5.3-1.7-8.1c.2-1.1.6-2.5 1.7-3.1 1.2-.7 2.5-.2 3.6.2 1.3.5 2.7 1 4.4.3 4-1.5 7.4-1.3 9.5.5 1.6 1.4 2.2 3.5 1.8 6.1-.5 2.8-2.1 5.3-4.5 6.9-1.6 1.2-3.7 1.9-5.9 1.9z" class="st2"/><path d="M164.9 108.3c.6.3 1.4.2 2-.1 2.5-1.5 10.6-6.4 11.9-9.3 1.6-3.4-18.4 7.2-13.9 9.4z" style="fill:#e5525f"/><path d="M113.5 222.5c-40.3 0-73-3.8-73-8.6 0-4.7 32.7-8.6 73-8.6s73 3.8 73 8.6c0 4.7-32.7 8.6-73 8.6z" style="fill:#f2a40c"/></svg>