<svg xmlns="http://www.w3.org/2000/svg" viewBox="0 0 150 30">
    <path d="M7.2 10.8v4.6c0 1-.5 1.5-1.5 1.5s-1.5-.6-1.5-1.5v-4.7l-4-5.5c-1-1.4 1.2-3.1 2.7-1.1L5.7 8c.9-1.3 2.9-4.3 3.5-4.6 1.2-.7 2.9.3 1.9 1.8zM91.7.1c-.8.4-.5 1.2-.5 3.2 0 .8-.1 2.3.1 2.9.6 1.4 1.6 2 3 2.1l.2 12c.5.8 1.7.4 1.9-.2V8.3c3.4-.4 3.1-2.6 3.1-5.1 0-1.8.4-3.1-1-3.2s-1.1 1.4-1.1 3.1h-1c0-1.8.2-3-1-3.1-1.4-.1-1.1 1.4-1.1 3.1h-1c0-1.7.3-3-1-3.1-.3 0-.4 0-.6.1zm19.6 0c-4.2 2.2-5.5 11-4.5 12.1.5.5 2.4.3 3.9.3 0 1.1-.2 7.2.1 7.8.5.9 1.7.5 1.9-.1V.7c-.1-.5-.9-.9-1.4-.6zm-.6 6.8v3.5h-2.1c.1-.8.7-6.8 2-6.9.1 0 .1 1.5.1 3.4zM101.3.6v10.9c-2.2.6-3.1 1.7-3.1 4.1 0 6.8 8.3 6.8 8.3 0 0-2.4-.9-3.4-3.1-4.1V.6c-.4-1-2.1-.5-2.1 0zm2 13.1c2.3.8.7 6-1.6 4.9-1.5-.8-2.3-4.9.1-5 0-.1 1.2 0 1.5.1zm-5.9-8.4c0 1.5-3.6.8-3.6.8-.5-.2-.6-.6-.6-.9h4.1c.1 0 .1.1.1.1zM83.9 17c-2.4 0-3.4-1.4-3.4-3.7V4.7c0-2 2.9-2 2.9 0v8.4c0 2.3 1.9 1.1 2.2 1.7.1.2.5 1.9-.8 2.1zm-11 0c-3.9 0-5.2-4.6-1.3-5.5l4.3-.3v1.5c-1.4 0-3.7-.2-3.7 1.1 0 1.8 3.4 1.7 3.4-.8 0-2.6.5-4.2-2.8-3.6-.8.3-2.9 1.4-2.9-.4 0-2 6.5-2.6 7.9 0 .7 1.3.5 4.6.5 6.4 0 2-2.7 2-2.7 0v-.7l.1.1c-.2 1.5-1.4 2.2-2.8 2.2zM64 17c-7.5 0-6.9-9.7-.5-9.7 4.5 0 4.9 4.8 4.3 5.3-.4.3-5.8.2-6.8.2v-1.5h4.9l-.3.3c0-3.3-4.2-3.3-4.2.5 0 4.6 5.1 2.1 5.7 2.2 1.4.2 1.2 2.7-3.1 2.7zm-20.2-.1c-.9 0-1.4-.5-1.4-1.4V4.6c0-1.6 2.1-1.9 3-.4l4.5 8h-.7c.7-1.2 4.4-8.3 5.1-8.7.6-.4 2.3-.4 2.3 1.1v10.9c0 1.9-2.7 1.8-2.7 0V7.9h.4c-.6 1-3.5 6.4-4.1 6.8-.5.3-1.4.2-1.9-.5l-3.6-6.3h.5v7.7c-.1.8-.6 1.3-1.4 1.3zm-8.2 0c-1 0-1.5-.5-1.5-1.5V8.8c0-1.9 2.9-2 2.9 0v1h-.2c.5-2.4 3.2-2.8 3.8-2.2.1.1 1.2 2-1.3 2.3-2.8.2-2.2 2.3-2.2 5.7 0 .8-.5 1.3-1.5 1.3zm-9.4.1c-4.4 0-3.5-4.1-3.5-8.2 0-2 2.9-1.9 2.9 0 0 1.3-.2 4.9.3 5.6.6.8 3 .6 3-1.7 0-1.3-.3-4.4.4-5 .6-.5 2.6-.7 2.6 1.1v6.7c0 2-2.8 2-2.8 0v-1.3l.3.7c-.7 1.3-1.8 2.1-3.2 2.1zm-10.3 0c-6.8 0-6.8-9.7 0-9.7s6.8 9.7 0 9.7zm0-2.2c2.9 0 2.9-5.4 0-5.4s-2.9 5.4 0 5.4z" style="fill:#fff" transform="matrix(1.33 0 0 1.44 .069 .0068)"/>
</svg>