<svg width="153" height="35" viewBox="0 0 153 35" fill="none" xmlns="http://www.w3.org/2000/svg">
<path d="M7.60065 26.2089C6.94627 26.2089 6.44688 26.0326 6.10247 25.68C5.75807 25.3274 5.58586 24.8237 5.58586 24.1689V16.8652L6.41244 19.1067L0.316425 10.6696C0.0753392 10.317 -0.0279831 9.93926 0.00645765 9.5363C0.0408984 9.11654 0.213102 8.75556 0.523069 8.45333C0.833036 8.15111 1.27216 8 1.84043 8C2.25372 8 2.62396 8.10074 2.95114 8.30222C3.29555 8.5037 3.62274 8.82272 3.93271 9.25926L8.0656 15.077H7.23902L11.3719 9.25926C11.6991 8.80593 12.0177 8.48691 12.3276 8.30222C12.6548 8.10074 13.0337 8 13.4642 8C14.0152 8 14.4458 8.14272 14.7557 8.42815C15.0657 8.69679 15.2293 9.04099 15.2465 9.46074C15.2637 9.8637 15.1173 10.2835 14.8074 10.72L8.78885 19.1067L9.5896 16.8652V24.1689C9.5896 25.5289 8.92662 26.2089 7.60065 26.2089Z" fill="white"/>
<path d="M21.1332 26.2593C19.7728 26.2593 18.5846 25.999 17.5686 25.4785C16.5698 24.958 15.7949 24.2109 15.2439 23.237C14.6928 22.2632 14.4173 21.1131 14.4173 19.7867C14.4173 18.7961 14.5723 17.9062 14.8822 17.117C15.1922 16.3279 15.6399 15.6563 16.2254 15.1022C16.8281 14.5314 17.5428 14.1032 18.3694 13.8178C19.196 13.5156 20.1172 13.3644 21.1332 13.3644C22.4937 13.3644 23.6733 13.6247 24.672 14.1452C25.688 14.6657 26.4716 15.4044 27.0226 16.3615C27.5909 17.3185 27.875 18.4602 27.875 19.7867C27.875 20.7941 27.7114 21.6923 27.3842 22.4815C27.0743 23.2706 26.6266 23.9506 26.0411 24.5215C25.4556 25.0923 24.7409 25.5289 23.8971 25.8311C23.0705 26.1165 22.1493 26.2593 21.1332 26.2593ZM21.1332 23.4133C21.7015 23.4133 22.1923 23.279 22.6056 23.0104C23.0189 22.7417 23.3461 22.3472 23.5872 21.8267C23.8282 21.2894 23.9488 20.6094 23.9488 19.7867C23.9488 18.561 23.6905 17.6627 23.1739 17.0919C22.6573 16.5042 21.977 16.2104 21.1332 16.2104C20.5822 16.2104 20.0914 16.3363 19.6609 16.5881C19.2476 16.84 18.9204 17.2346 18.6793 17.7719C18.4555 18.2923 18.3435 18.964 18.3435 19.7867C18.3435 21.0123 18.6019 21.9274 19.1185 22.5319C19.6351 23.1195 20.3067 23.4133 21.1332 23.4133Z" fill="white"/>
<path d="M34.9233 26.2593C33.8557 26.2593 32.9688 26.0662 32.2628 25.68C31.5568 25.2938 31.0315 24.7146 30.6871 23.9422C30.3599 23.1531 30.1963 22.1793 30.1963 21.0207V15.3289C30.1963 14.6909 30.3599 14.2123 30.6871 13.8933C31.0315 13.5743 31.5137 13.4148 32.1336 13.4148C32.7536 13.4148 33.2357 13.5743 33.5802 13.8933C33.9246 14.2123 34.0968 14.6909 34.0968 15.3289V21.1215C34.0968 21.8602 34.2518 22.4143 34.5617 22.7837C34.8717 23.1363 35.3625 23.3126 36.0341 23.3126C36.7745 23.3126 37.3773 23.0607 37.8422 22.557C38.3244 22.0365 38.5655 21.3565 38.5655 20.517V15.3289C38.5655 14.6909 38.729 14.2123 39.0562 13.8933C39.4006 13.5743 39.8828 13.4148 40.5028 13.4148C41.1399 13.4148 41.6221 13.5743 41.9493 13.8933C42.2937 14.2123 42.4659 14.6909 42.4659 15.3289V24.2696C42.4659 25.5625 41.8373 26.2089 40.5802 26.2089C39.9603 26.2089 39.4867 26.041 39.1596 25.7052C38.8324 25.3694 38.6688 24.8909 38.6688 24.2696V22.5822L39.0562 23.5644C38.6774 24.4207 38.1349 25.084 37.4289 25.5541C36.7229 26.0242 35.8877 26.2593 34.9233 26.2593Z" fill="white"/>
<path d="M47.4988 26.2089C46.8444 26.2089 46.345 26.041 46.0006 25.7052C45.6562 25.3694 45.484 24.8909 45.484 24.2696V15.3289C45.484 14.7077 45.6476 14.2375 45.9748 13.9185C46.3192 13.5827 46.7928 13.4148 47.3955 13.4148C48.0154 13.4148 48.489 13.5827 48.8162 13.9185C49.1433 14.2375 49.3069 14.7077 49.3069 15.3289V16.6385H49.0486C49.2553 15.6311 49.7116 14.8504 50.4177 14.2963C51.1237 13.7422 52.0364 13.4316 53.1557 13.3644C53.5862 13.3309 53.9134 13.44 54.1373 13.6919C54.3783 13.9269 54.5075 14.3215 54.5247 14.8756C54.5592 15.396 54.4472 15.8074 54.1889 16.1096C53.9478 16.4119 53.5345 16.5965 52.9491 16.6637L52.3549 16.7141C51.3734 16.798 50.6415 17.0751 50.1593 17.5452C49.6944 18.0153 49.4619 18.6953 49.4619 19.5852V24.2696C49.4619 24.8909 49.2897 25.3694 48.9453 25.7052C48.6181 26.041 48.136 26.2089 47.4988 26.2089Z" fill="white"/>
<path d="M58.3246 26.2089C57.7391 26.2089 57.2914 26.0494 56.9814 25.7304C56.6715 25.4114 56.5165 24.9664 56.5165 24.3956V9.81333C56.5165 9.24247 56.6801 8.79753 57.0073 8.47852C57.3517 8.15951 57.8166 8 58.4021 8C58.9187 8 59.3234 8.10074 59.6162 8.30222C59.9261 8.48691 60.2103 8.81432 60.4686 9.28444L66.4354 19.9126H65.5572L71.5241 9.28444C71.7824 8.81432 72.0579 8.48691 72.3506 8.30222C72.6606 8.10074 73.0653 8 73.5647 8C74.1502 8 74.5979 8.15951 74.9079 8.47852C75.2351 8.79753 75.3986 9.24247 75.3986 9.81333V24.3956C75.3986 24.9664 75.2437 25.4114 74.9337 25.7304C74.6237 26.0494 74.176 26.2089 73.5905 26.2089C73.005 26.2089 72.5487 26.0494 72.2215 25.7304C71.9115 25.4114 71.7565 24.9664 71.7565 24.3956V14.1956H72.3248L67.5203 22.5822C67.3137 22.9012 67.0898 23.1447 66.8487 23.3126C66.6249 23.4637 66.3235 23.5393 65.9447 23.5393C65.5658 23.5393 65.2558 23.4553 65.0148 23.2874C64.7737 23.1195 64.5584 22.8844 64.369 22.5822L59.5128 14.1704H60.1328V24.3956C60.1328 24.9664 59.9778 25.4114 59.6678 25.7304C59.3751 26.0494 58.9273 26.2089 58.3246 26.2089Z" fill="white"/>
<path d="M85.3428 26.2593C83.8446 26.2593 82.5531 25.999 81.4682 25.4785C80.4006 24.9412 79.574 24.1941 78.9885 23.237C78.4202 22.2632 78.1361 21.1215 78.1361 19.8119C78.1361 18.5358 78.4116 17.4193 78.9627 16.4622C79.5137 15.4884 80.28 14.7328 81.2616 14.1956C82.2604 13.6415 83.3883 13.3644 84.6454 13.3644C85.5581 13.3644 86.3846 13.5156 87.1251 13.8178C87.8656 14.1032 88.5028 14.523 89.0366 15.077C89.5704 15.6143 89.9751 16.2775 90.2506 17.0667C90.5261 17.839 90.6639 18.7037 90.6639 19.6607C90.6639 19.9798 90.5606 20.2232 90.3539 20.3911C90.1473 20.5422 89.8459 20.6178 89.4499 20.6178H81.3391V18.6533H87.8484L87.4351 19.0059C87.4351 18.3175 87.3318 17.7467 87.1251 17.2933C86.9185 16.8232 86.6171 16.4706 86.2211 16.2356C85.8422 16.0005 85.3686 15.883 84.8004 15.883C84.1632 15.883 83.6208 16.0257 83.173 16.3111C82.7253 16.5965 82.3809 17.0079 82.1398 17.5452C81.8987 18.0825 81.7782 18.7289 81.7782 19.4844V19.6859C81.7782 20.962 82.0796 21.9022 82.6823 22.5067C83.3022 23.1111 84.2149 23.4133 85.4203 23.4133C85.8336 23.4133 86.3072 23.363 86.841 23.2622C87.3748 23.1615 87.8742 23.002 88.3392 22.7837C88.7352 22.599 89.0882 22.5402 89.3982 22.6074C89.7082 22.6578 89.9493 22.7921 90.1215 23.0104C90.2937 23.2286 90.3884 23.4805 90.4056 23.7659C90.44 24.0514 90.3798 24.3368 90.2248 24.6222C90.0698 24.8909 89.8115 25.1175 89.4499 25.3022C88.8644 25.6212 88.2014 25.8563 87.4609 26.0074C86.7377 26.1753 86.0316 26.2593 85.3428 26.2593Z" fill="white"/>
<path d="M97.2204 26.2593C96.2905 26.2593 95.4553 26.083 94.7149 25.7304C93.9744 25.3778 93.3975 24.8993 92.9842 24.2948C92.5709 23.6904 92.3643 23.0104 92.3643 22.2548C92.3643 21.3481 92.6054 20.6346 93.0875 20.1141C93.5697 19.5768 94.3532 19.199 95.4381 18.9807C96.523 18.7457 97.9609 18.6281 99.7518 18.6281H101.121V20.5926H99.7777C98.8994 20.5926 98.1848 20.643 97.6337 20.7437C97.0999 20.8277 96.7124 20.9788 96.4714 21.197C96.2475 21.4153 96.1356 21.7175 96.1356 22.1037C96.1356 22.5738 96.2991 22.96 96.6263 23.2622C96.9707 23.5644 97.4615 23.7156 98.0987 23.7156C98.5981 23.7156 99.0372 23.6064 99.416 23.3881C99.8121 23.1531 100.122 22.8425 100.346 22.4563C100.57 22.0533 100.682 21.6 100.682 21.0963V18.2C100.682 17.4612 100.51 16.9407 100.165 16.6385C99.8207 16.3195 99.2352 16.16 98.4086 16.16C97.9437 16.16 97.4357 16.2188 96.8846 16.3363C96.3508 16.437 95.7567 16.6133 95.1023 16.8652C94.7235 17.0331 94.3877 17.0751 94.0949 16.9911C93.8022 16.8904 93.5783 16.7225 93.4233 16.4874C93.2684 16.2356 93.1909 15.9669 93.1909 15.6815C93.1909 15.3793 93.277 15.0938 93.4492 14.8252C93.6214 14.5398 93.9055 14.3299 94.3016 14.1956C95.1109 13.8765 95.8686 13.6583 96.5747 13.5407C97.2979 13.4232 97.9609 13.3644 98.5636 13.3644C99.8896 13.3644 100.974 13.5575 101.818 13.9437C102.679 14.3131 103.325 14.8923 103.756 15.6815C104.186 16.4538 104.401 17.4528 104.401 18.6785V24.2696C104.401 24.8909 104.246 25.3694 103.936 25.7052C103.626 26.041 103.179 26.2089 102.593 26.2089C102.008 26.2089 101.551 26.041 101.224 25.7052C100.914 25.3694 100.759 24.8909 100.759 24.2696V23.3378L100.94 23.4889C100.837 24.0598 100.613 24.5551 100.268 24.9748C99.9413 25.3778 99.5194 25.6968 99.0027 25.9319C98.4861 26.1501 97.892 26.2593 97.2204 26.2593Z" fill="white"/>
<path d="M111.883 26.2593C110.35 26.2593 109.205 25.8479 108.447 25.0252C107.69 24.1857 107.311 22.9432 107.311 21.2978V9.93926C107.311 9.30124 107.475 8.82272 107.802 8.5037C108.146 8.1679 108.637 8 109.274 8C109.894 8 110.368 8.1679 110.695 8.5037C111.039 8.82272 111.211 9.30124 111.211 9.93926V21.1467C111.211 21.8351 111.358 22.3472 111.65 22.683C111.96 23.002 112.365 23.1615 112.864 23.1615C113.002 23.1615 113.131 23.1531 113.252 23.1363C113.372 23.1195 113.502 23.1111 113.639 23.1111C113.915 23.0775 114.104 23.1615 114.208 23.363C114.328 23.5477 114.388 23.9254 114.388 24.4963C114.388 25 114.285 25.3862 114.079 25.6548C113.872 25.9067 113.553 26.0746 113.123 26.1585C112.951 26.1753 112.753 26.1921 112.529 26.2089C112.305 26.2425 112.09 26.2593 111.883 26.2593Z" fill="white"/>
<path d="M145.06 8.16295L147.847 8.07486V17.9404H144.484L145.06 8.16295Z" fill="#FFA132"/>
<ellipse cx="136.475" cy="25.1634" rx="3.31877" ry="4.2281" fill="#FFA132"/>
<path d="M130.388 11.3781C130.388 13.7132 128.769 13.3159 126.936 13.3159C125.103 13.3159 123.883 12.6993 123.883 11.8625C123.883 9.52742 125.236 9.21997 127.069 9.21997C128.902 9.21997 130.388 9.04295 130.388 11.3781Z" fill="#FFA132"/>
<path d="M122.233 3.79129C122.07 3.88233 121.854 4.07743 121.743 4.227L121.547 4.50664V7.99234V11.4846L121.717 11.9203C122.331 13.4875 123.651 14.528 125.238 14.6906L125.663 14.7361L125.696 22.605L125.729 30.4738L125.872 30.708C125.957 30.838 126.147 31.0266 126.297 31.1307C126.539 31.2998 126.624 31.3193 127.068 31.3193C127.506 31.3193 127.597 31.2998 127.826 31.1437C127.963 31.0461 128.153 30.8575 128.244 30.721L128.407 30.4803L128.44 22.6115L128.473 14.7361L128.897 14.6906C130.524 14.528 131.949 13.364 132.445 11.8097C132.589 11.361 132.589 11.2895 132.589 7.93382V4.51314L132.413 4.25952C132.125 3.85632 131.825 3.68724 131.321 3.66122C130.786 3.63521 130.4 3.8108 130.106 4.227L129.91 4.50664L129.878 6.13894L129.845 7.77774H129.159H128.473L128.44 6.14544C128.407 4.53915 128.407 4.51314 128.244 4.27903C127.97 3.86933 127.636 3.68724 127.14 3.66122C126.604 3.63521 126.219 3.8108 125.925 4.227L125.729 4.50664L125.696 6.13894L125.663 7.77774H124.977H124.291L124.258 6.14544L124.226 4.51314L124.049 4.25952C123.762 3.85632 123.461 3.68724 122.958 3.66122C122.599 3.64172 122.475 3.66773 122.233 3.79129ZM129.812 10.7367C129.812 11.1334 129.492 11.5691 129.028 11.8162C128.819 11.9268 128.636 11.9398 127.068 11.9398C125.421 11.9398 125.323 11.9333 125.075 11.7967C124.631 11.5626 124.324 11.1269 124.324 10.7367V10.5416H127.068H129.812V10.7367Z" fill="white"/>
<path d="M135.777 3.79129C135.614 3.88233 135.398 4.07743 135.287 4.227L135.091 4.50664L135.058 11.7577L135.026 19.0087L134.477 19.1713C133.105 19.5615 132.079 20.3809 131.504 21.532C131.001 22.553 130.916 22.9757 130.916 24.4584C130.916 25.5444 130.936 25.8046 131.053 26.2793C131.694 28.796 133.111 30.5129 135.091 31.1697C135.477 31.2932 135.686 31.3193 136.431 31.3193C137.175 31.3193 137.385 31.2932 137.77 31.1697C139.75 30.5129 141.168 28.796 141.808 26.2793C141.926 25.8046 141.945 25.5444 141.945 24.4584C141.945 23.3659 141.926 23.1187 141.801 22.67C141.311 20.8686 140.142 19.6721 138.384 19.1713L137.835 19.0087L137.803 11.7642L137.77 4.51314L137.594 4.25952C137.306 3.85632 137.006 3.68724 136.502 3.66123C136.143 3.64172 136.019 3.66773 135.777 3.79129ZM137.718 21.8571C138.45 22.1042 138.926 22.67 139.109 23.4894C139.234 24.0552 139.162 25.4729 138.979 26.0517C138.639 27.1182 137.992 28.0156 137.293 28.3668C136.855 28.5879 136.012 28.5944 135.581 28.3733C134.836 27.9896 134.235 27.1572 133.869 26.0192C133.739 25.59 133.719 25.4014 133.719 24.4584C133.719 23.4114 133.726 23.3789 133.909 22.9757C134.235 22.2733 134.902 21.8181 135.777 21.7011C135.777 21.7011 137.313 21.7271 137.718 21.8571Z" fill="white"/>
<path d="M148.375 3.76528C147.538 4.20099 146.245 5.38457 145.448 6.43158C143.461 9.06537 142.305 12.7852 142.037 17.435C141.939 19.1388 141.985 19.3924 142.436 19.8411C142.873 20.2769 142.991 20.2964 145.474 20.2964H147.604V25.3233V30.3568L147.754 30.6299C147.832 30.786 148.028 31.0006 148.185 31.1177C148.44 31.2998 148.505 31.3193 148.969 31.3193C149.414 31.3193 149.505 31.2998 149.734 31.1437C149.871 31.0461 150.061 30.8575 150.152 30.721L150.315 30.4803V17.5V4.51314L150.139 4.25952C149.851 3.84982 149.551 3.68724 149.048 3.66122C148.721 3.64822 148.558 3.66773 148.375 3.76528ZM147.604 12.8827V17.5H146.219H144.84L144.886 16.8302C145.003 15.0418 145.441 12.8827 146.01 11.2895C146.388 10.2359 147.408 8.26548 147.571 8.26548C147.591 8.26548 147.604 10.34 147.604 12.8827Z" fill="white"/>
</svg>
