<svg xmlns="http://www.w3.org/2000/svg">
	<symbol id="logo" viewBox="0 0 150 30">
		<path
			d="M7.2 10.8v4.6c0 1-.5 1.5-1.5 1.5s-1.5-.6-1.5-1.5v-4.7l-4-5.5c-1-1.4 1.2-3.1 2.7-1.1L5.7 8c.9-1.3 2.9-4.3 3.5-4.6 1.2-.7 2.9.3 1.9 1.8zM91.7.1c-.8.4-.5 1.2-.5 3.2 0 .8-.1 2.3.1 2.9.6 1.4 1.6 2 3 2.1l.2 12c.5.8 1.7.4 1.9-.2V8.3c3.4-.4 3.1-2.6 3.1-5.1 0-1.8.4-3.1-1-3.2s-1.1 1.4-1.1 3.1h-1c0-1.8.2-3-1-3.1-1.4-.1-1.1 1.4-1.1 3.1h-1c0-1.7.3-3-1-3.1-.3 0-.4 0-.6.1zm19.6 0c-4.2 2.2-5.5 11-4.5 12.1.5.5 2.4.3 3.9.3 0 1.1-.2 7.2.1 7.8.5.9 1.7.5 1.9-.1V.7c-.1-.5-.9-.9-1.4-.6zm-.6 6.8v3.5h-2.1c.1-.8.7-6.8 2-6.9.1 0 .1 1.5.1 3.4zM101.3.6v10.9c-2.2.6-3.1 1.7-3.1 4.1 0 6.8 8.3 6.8 8.3 0 0-2.4-.9-3.4-3.1-4.1V.6c-.4-1-2.1-.5-2.1 0zm2 13.1c2.3.8.7 6-1.6 4.9-1.5-.8-2.3-4.9.1-5 0-.1 1.2 0 1.5.1zm-5.9-8.4c0 1.5-3.6.8-3.6.8-.5-.2-.6-.6-.6-.9h4.1c.1 0 .1.1.1.1zM83.9 17c-2.4 0-3.4-1.4-3.4-3.7V4.7c0-2 2.9-2 2.9 0v8.4c0 2.3 1.9 1.1 2.2 1.7.1.2.5 1.9-.8 2.1zm-11 0c-3.9 0-5.2-4.6-1.3-5.5l4.3-.3v1.5c-1.4 0-3.7-.2-3.7 1.1 0 1.8 3.4 1.7 3.4-.8 0-2.6.5-4.2-2.8-3.6-.8.3-2.9 1.4-2.9-.4 0-2 6.5-2.6 7.9 0 .7 1.3.5 4.6.5 6.4 0 2-2.7 2-2.7 0v-.7l.1.1c-.2 1.5-1.4 2.2-2.8 2.2zM64 17c-7.5 0-6.9-9.7-.5-9.7 4.5 0 4.9 4.8 4.3 5.3-.4.3-5.8.2-6.8.2v-1.5h4.9l-.3.3c0-3.3-4.2-3.3-4.2.5 0 4.6 5.1 2.1 5.7 2.2 1.4.2 1.2 2.7-3.1 2.7zm-20.2-.1c-.9 0-1.4-.5-1.4-1.4V4.6c0-1.6 2.1-1.9 3-.4l4.5 8h-.7c.7-1.2 4.4-8.3 5.1-8.7.6-.4 2.3-.4 2.3 1.1v10.9c0 1.9-2.7 1.8-2.7 0V7.9h.4c-.6 1-3.5 6.4-4.1 6.8-.5.3-1.4.2-1.9-.5l-3.6-6.3h.5v7.7c-.1.8-.6 1.3-1.4 1.3zm-8.2 0c-1 0-1.5-.5-1.5-1.5V8.8c0-1.9 2.9-2 2.9 0v1h-.2c.5-2.4 3.2-2.8 3.8-2.2.1.1 1.2 2-1.3 2.3-2.8.2-2.2 2.3-2.2 5.7 0 .8-.5 1.3-1.5 1.3zm-9.4.1c-4.4 0-3.5-4.1-3.5-8.2 0-2 2.9-1.9 2.9 0 0 1.3-.2 4.9.3 5.6.6.8 3 .6 3-1.7 0-1.3-.3-4.4.4-5 .6-.5 2.6-.7 2.6 1.1v6.7c0 2-2.8 2-2.8 0v-1.3l.3.7c-.7 1.3-1.8 2.1-3.2 2.1zm-10.3 0c-6.8 0-6.8-9.7 0-9.7s6.8 9.7 0 9.7zm0-2.2c2.9 0 2.9-5.4 0-5.4s-2.9 5.4 0 5.4z"
			transform="matrix(1.33 0 0 1.44 .069 .0068)" />

	</symbol>
	<symbol id="phone" viewBox="0 0 18 18">
		<path fill="currentColor"
			d="M17.01 12.38c-1.23 0-2.42-.2-3.53-.56a.977.977 0 0 0-1.01.24l-1.57 1.97c-2.83-1.35-5.48-3.9-6.89-6.83l1.95-1.66c.27-.28.35-.67.24-1.02-.37-1.11-.56-2.3-.56-3.53 0-.54-.45-.99-.99-.99H1.19C.65 0 0 .24 0 .99 0 10.28 7.73 18 17.01 18c.71 0 .99-.63.99-1.18v-3.45c0-.54-.45-.99-.99-.99Z" />
	</symbol>
	<symbol id="tg" viewBox="0 0 36 36">
		<path fill="currentColor"
			d="M36 18a18 18 0 1 1-36 0 18 18 0 0 1 36 0Zm-17.354-4.711c-1.75.729-5.252 2.236-10.499 4.522-.85.337-1.298.67-1.338.994-.068.547.618.763 1.552 1.058l.394.124c.918.299 2.155.648 2.796.661.585.014 1.236-.225 1.954-.72 4.902-3.31 7.434-4.981 7.591-5.017.113-.027.27-.059.373.036.106.092.095.27.084.317-.068.29-2.761 2.792-4.154 4.088-.434.405-.742.691-.805.756-.139.142-.28.282-.423.419-.855.823-1.494 1.44.034 2.448.735.486 1.325.884 1.912 1.284.639.437 1.278.871 2.106 1.416.21.135.412.281.608.42.744.532 1.417 1.009 2.243.932.481-.045.978-.495 1.23-1.845.597-3.188 1.769-10.093 2.039-12.94a3.202 3.202 0 0 0-.03-.709.758.758 0 0 0-.256-.488 1.184 1.184 0 0 0-.697-.209c-.675.011-1.717.373-6.714 2.453Z" />
	</symbol>
	<symbol id="vk" viewBox="0 0 21000 21000">
		<path fill="currentColor"
			d="M10500 0C4701 0 0 4701 0 10500s4701 10500 10500 10500 10500-4701 10500-10500S16299 0 10500 0zm4038 11846s928 917 1157 1342c7 9 10 18 12 22 93 157 115 278 69 369-76 151-339 225-428 232h-1641c-114 0-352-30-641-229-222-155-441-410-654-658-318-370-594-689-872-689-35 0-70 6-104 16-210 68-479 368-479 1166 0 249-197 393-336 393h-751c-256 0-1589-90-2771-1336-1445-1525-2747-4586-2758-4614-81-199 88-304 273-304h1656c222 0 294 134 344 253 59 140 276 691 631 1313 576 1013 930 1424 1213 1424 53-1 105-14 152-40 370-205 301-1523 285-1796 0-52-2-590-191-848-135-187-366-258-506-285 56-78 131-141 217-184 254-127 711-146 1165-146h253c492 7 619 38 797 83 361 86 369 320 337 1117-10 227-20 482-20 784 0 66-3 136-3 210-11 406-24 867 262 1056 38 23 81 36 125 36 99 0 399 0 1211-1393 251-448 468-913 651-1393 16-29 64-116 121-150 41-21 87-32 133-32h1951c212 0 357 32 385 114 48 130-9 527-898 1732l-397 524c-806 1056-806 1110 50 1911z"
		/>
	</symbol>
</svg>