<?xml version="1.0" encoding="UTF-8"?>
<!DOCTYPE svg PUBLIC "-//W3C//DTD SVG 1.1//EN" "http://www.w3.org/Graphics/SVG/1.1/DTD/svg11.dtd">
<!-- Creator: CorelDRAW 2019 (64-Bit) -->
<svg xmlns="http://www.w3.org/2000/svg" xml:space="preserve" width="13.3288mm" height="13.2292mm" version="1.1" style="shape-rendering:geometricPrecision; text-rendering:geometricPrecision; image-rendering:optimizeQuality; fill-rule:evenodd; clip-rule:evenodd"
viewBox="0 0 11.17 11.08"
 xmlns:xlink="http://www.w3.org/1999/xlink"
 xmlns:xodm="http://www.corel.com/coreldraw/odm/2003">
 <defs>
  <style type="text/css">
   <![CDATA[
    .fil0 {fill:#383838}
    .fil1 {fill:#D13030}
   ]]>
  </style>
 </defs>
 <g id="Слой_x0020_1">
  <metadata id="CorelCorpID_0Corel-Layer"/>
  <path class="fil0" d="M5.4 10.33l4.78 0c0.06,0 0.11,-0.05 0.11,-0.11 0,-0.06 -0.05,-0.11 -0.11,-0.11l-4.78 0c-0.06,0 -0.11,0.05 -0.11,0.11 0,0.06 0.05,0.11 0.11,0.11zm-3.32 -10.33l6.97 0 2.13 2.04 0 8.96 -7.17 0.08c0,-0.01 0,-0.02 0,-0.03l0 -0.75 0.43 0c0.12,0 0.21,-0.09 0.21,-0.21l0 -0.76c0,-0.12 -0.09,-0.21 -0.21,-0.21l-1.17 0 0 -0.75c0,-0.12 -0.09,-0.21 -0.21,-0.21l-0.86 0c0.57,-0.27 0.97,-0.85 0.97,-1.53 0,-0.72 -0.45,-1.33 -1.08,-1.57l0 -3.37 6.16 0c0.12,0 0.21,-0.09 0.21,-0.21l0 -0.63c0,-0.12 -0.09,-0.21 -0.21,-0.21l-6.16 0 0 -0.65zm0.97 2.36l3.41 0c0.06,0 0.11,-0.05 0.11,-0.11 0,-0.06 -0.05,-0.11 -0.11,-0.11l-3.41 0c-0.06,0 -0.11,0.05 -0.11,0.11 0,0.06 0.05,0.11 0.11,0.11zm0 2.77l7.12 0c0.06,0 0.11,-0.05 0.11,-0.11 0,-0.06 -0.05,-0.11 -0.11,-0.11l-7.12 0c-0.06,0 -0.11,0.05 -0.11,0.11 0,0.06 0.05,0.11 0.11,0.11zm0 -0.55l7.12 0c0.06,0 0.11,-0.05 0.11,-0.11 0,-0.06 -0.05,-0.11 -0.11,-0.11l-7.12 0c-0.06,0 -0.11,0.05 -0.11,0.11 0,0.06 0.05,0.11 0.11,0.11zm0 -0.55l7.12 0c0.06,0 0.11,-0.05 0.11,-0.11 0,-0.06 -0.05,-0.11 -0.11,-0.11l-7.12 0c-0.06,0 -0.11,0.05 -0.11,0.11 0,0.06 0.05,0.11 0.11,0.11zm0 -0.55l7.12 0c0.06,0 0.11,-0.05 0.11,-0.11 0,-0.06 -0.05,-0.11 -0.11,-0.11l-7.12 0c-0.06,0 -0.11,0.05 -0.11,0.11 0,0.06 0.05,0.11 0.11,0.11zm0 -0.55l4.97 0c0.06,0 0.11,-0.05 0.11,-0.11 0,-0.06 -0.05,-0.11 -0.11,-0.11l-4.97 0c-0.06,0 -0.11,0.05 -0.11,0.11 0,0.06 0.05,0.11 0.11,0.11zm2.54 5.12l0.29 0c0.12,0 0.21,0.09 0.21,0.21l0 1.47c0,0.12 -0.09,0.21 -0.21,0.21l-0.29 0c-0.12,0 -0.21,-0.09 -0.21,-0.21l0 -1.47c0,-0.12 0.09,-0.21 0.21,-0.21zm4.11 -0.81l0.29 0c0.12,0 0.21,0.09 0.21,0.21l0 2.28c0,0.12 -0.09,0.21 -0.21,0.21l-0.29 0c-0.12,0 -0.21,-0.09 -0.21,-0.21l0 -2.28c0,-0.12 0.09,-0.21 0.21,-0.21zm-1.03 0.63l0.29 0c0.12,0 0.21,0.09 0.21,0.21l0 1.65c0,0.12 -0.09,0.21 -0.21,0.21l-0.29 0c-0.12,0 -0.21,-0.09 -0.21,-0.21l0 -1.65c0,-0.12 0.09,-0.21 0.21,-0.21zm-1.03 -1.9l0.29 0c0.12,0 0.21,0.09 0.21,0.21l0 3.55c0,0.12 -0.09,0.21 -0.21,0.21l-0.29 0c-0.12,0 -0.21,-0.09 -0.21,-0.21l0 -3.55c0,-0.12 0.09,-0.21 0.21,-0.21zm-1.03 1.26l0.29 0c0.12,0 0.21,0.09 0.21,0.21l0 2.28c0,0.12 -0.09,0.21 -0.21,0.21l-0.29 0c-0.12,0 -0.21,-0.09 -0.21,-0.21l0 -2.28c0,-0.12 0.09,-0.21 0.21,-0.21z"/>
  <path class="fil1" d="M1.38 10.38c0.07,0 0.13,0.06 0.13,0.13l0 0.34c0,0.17 -0.25,0.17 -0.25,0l0 -0.34c0,-0.07 0.06,-0.13 0.13,-0.13zm4.21 -2.14l0.29 0 0 1.47 -0.29 0 0 -1.47zm-4.34 -7.38l6.99 0 0 0.63 -6.99 0 0 -0.63zm8.46 6.58l0.29 0 0 2.28 -0.29 0 0 -2.28zm-1.03 0.63l0.29 0 0 1.65 -0.29 0 0 -1.65zm-1.03 -1.9l0.29 0 0 3.55 -0.29 0 0 -3.55zm-1.03 1.26l0.29 0 0 2.28 -0.29 0 0 -2.28zm-5.14 -2.27c0.81,0 1.47,0.66 1.47,1.47 0,0.81 -0.66,1.47 -1.47,1.47 -0.81,0 -1.47,-0.66 -1.47,-1.47 0,-0.81 0.66,-1.47 1.47,-1.47zm0 0.21c0.7,0 1.26,0.57 1.26,1.26 0,0.7 -0.57,1.26 -1.26,1.26 -0.7,0 -1.26,-0.57 -1.26,-1.26 0,-0.7 0.57,-1.26 1.26,-1.26zm0 0.08c0.65,0 1.18,0.53 1.18,1.18 0,0.65 -0.53,1.18 -1.18,1.18 -0.65,0 -1.18,-0.53 -1.18,-1.18 0,-0.65 0.53,-1.18 1.18,-1.18zm0.24 1.42l0 0.22 -0.39 0 0 0.27 -0.3 0 0 -0.27 -0.1 0 0 -0.22 0.1 0 0 -0.12 -0.1 0 0 -0.23 0.1 0 0 -0.62c0.44,0 0.99,-0.09 0.99,0.41 0,0.44 -0.36,0.44 -0.7,0.44l0 0.12 0.39 0zm-0.39 -0.35c0.21,0 0.39,0.02 0.39,-0.19 0,-0.21 -0.21,-0.18 -0.39,-0.18l0 0.37zm-0.69 1.93c0.07,0 0.13,0.06 0.13,0.13l0 0.34c0,0.17 -0.25,0.17 -0.25,0l0 -0.34c0,-0.07 0.06,-0.13 0.13,-0.13zm0.47 0c0.07,0 0.13,0.06 0.13,0.13l0 0.34c0,0.17 -0.25,0.17 -0.25,0l0 -0.34c0,-0.07 0.06,-0.13 0.13,-0.13zm0.47 0c0.07,0 0.13,0.06 0.13,0.13l0 0.34c0,0.17 -0.25,0.17 -0.25,0l0 -0.34c0,-0.07 0.06,-0.13 0.13,-0.13zm0.47 0c0.07,0 0.13,0.06 0.13,0.13l0 0.34c0,0.17 -0.25,0.17 -0.25,0l0 -0.34c0,-0.07 0.06,-0.13 0.13,-0.13zm0.47 0c0.07,0 0.13,0.06 0.13,0.13l0 0.34c0,0.17 -0.25,0.17 -0.25,0l0 -0.34c0,-0.07 0.06,-0.13 0.13,-0.13zm-2.41 -0.08l2.95 0 0 0.76 -2.95 0 0 -0.76zm1.92 1.04c0.07,0 0.13,0.06 0.13,0.13l0 0.34c0,0.17 -0.25,0.17 -0.25,0l0 -0.34c0,-0.07 0.06,-0.13 0.13,-0.13zm0.47 0c0.07,0 0.13,0.06 0.13,0.13l0 0.34c0,0.17 -0.25,0.17 -0.25,0l0 -0.34c0,-0.07 0.06,-0.13 0.13,-0.13zm0.47 0c0.07,0 0.13,0.06 0.13,0.13l0 0.34c0,0.17 -0.25,0.17 -0.25,0l0 -0.34c0,-0.07 0.06,-0.13 0.13,-0.13zm0.47 0c0.07,0 0.13,0.06 0.13,0.13l0 0.34c0,0.17 -0.25,0.17 -0.25,0l0 -0.34c0,-0.07 0.06,-0.13 0.13,-0.13zm0.47 0c0.07,0 0.13,0.06 0.13,0.13l0 0.34c0,0.17 -0.25,0.17 -0.25,0l0 -0.34c0,-0.07 0.06,-0.13 0.13,-0.13zm-2.41 -0.08l2.95 0 0 0.76 -2.95 0 0 -0.76zm0.37 1.04c0.07,0 0.13,0.06 0.13,0.13l0 0.34c0,0.17 -0.25,0.17 -0.25,0l0 -0.34c0,-0.07 0.06,-0.13 0.13,-0.13zm0.47 0c0.07,0 0.13,0.06 0.13,0.13l0 0.34c0,0.17 -0.25,0.17 -0.25,0l0 -0.34c0,-0.07 0.06,-0.13 0.13,-0.13zm0.47 0c0.07,0 0.13,0.06 0.13,0.13l0 0.34c0,0.17 -0.25,0.17 -0.25,0l0 -0.34c0,-0.07 0.06,-0.13 0.13,-0.13zm0.47 0c0.07,0 0.13,0.06 0.13,0.13l0 0.34c0,0.17 -0.25,0.17 -0.25,0l0 -0.34c0,-0.07 0.06,-0.13 0.13,-0.13zm-2.41 -0.08l2.95 0 0 0.76 -2.95 0 0 -0.76z"/>
 </g>
</svg>
