<?xml version="1.0" encoding="utf-8"?>
<!-- Generator: Adobe Illustrator 23.1.0, SVG Export Plug-In . SVG Version: 6.00 Build 0)  -->
<svg version="1.1" id="Слой_1" xmlns:xodm="http://www.corel.com/coreldraw/odm/2003"
	 xmlns="http://www.w3.org/2000/svg" xmlns:xlink="http://www.w3.org/1999/xlink" x="0px" y="0px" viewBox="0 0 750 713.9"
	 style="enable-background:new 0 0 750 713.9;" xml:space="preserve">
<style type="text/css">
	.st0{fill-rule:evenodd;clip-rule:evenodd;fill:#383838;}
	.st1{fill-rule:evenodd;clip-rule:evenodd;fill:#D13030;}
</style>
<g id="Слой_x0020_1">
	<path class="st0" d="M347.7,665.1h308c3.7,0,6.8-3.1,6.8-6.8c0-3.7-3.1-6.8-6.8-6.8h-308c-3.7,0-6.8,3.1-6.8,6.8
		S344,665.1,347.7,665.1L347.7,665.1z M133.7,0h448.6L750,167.6v546.3H257.4c0.1-0.5,0.1-1.1,0.1-1.6v-48.2h27.4
		c7.5,0,13.6-6.1,13.6-13.6v-48.8c0-7.5-6.1-13.6-13.6-13.6h-75.4v-48.2c0-7.5-6.1-13.6-13.6-13.6h-55.1
		c37-17.3,62.7-54.9,62.7-98.4c0-46.3-29-85.8-69.8-101.4V109.6h396.6c7.5,0,13.6-6.1,13.6-13.6V55.4c0-7.5-6.1-13.6-13.6-13.6
		H133.7L133.7,0L133.7,0z M195.9,152.2h219.8c3.7,0,6.8-3.1,6.8-6.8c0-3.7-3.1-6.8-6.8-6.8H195.9c-3.7,0-6.8,3.1-6.8,6.8
		S192.2,152.2,195.9,152.2L195.9,152.2z M195.9,330.8h458.6c3.7,0,6.8-3.1,6.8-6.8c0-3.7-3.1-6.8-6.8-6.8H195.9
		c-3.7,0-6.8,3.1-6.8,6.8C189.1,327.7,192.2,330.8,195.9,330.8L195.9,330.8z M195.9,295.1h458.6c3.7,0,6.8-3.1,6.8-6.8
		c0-3.7-3.1-6.8-6.8-6.8H195.9c-3.7,0-6.8,3.1-6.8,6.8S192.2,295.1,195.9,295.1L195.9,295.1z M195.9,259.4h458.6
		c3.7,0,6.8-3.1,6.8-6.8c0-3.7-3.1-6.8-6.8-6.8H195.9c-3.7,0-6.8,3.1-6.8,6.8C189.1,256.3,192.2,259.4,195.9,259.4L195.9,259.4z
		 M195.9,223.6h458.6c3.7,0,6.8-3.1,6.8-6.8c0-3.7-3.1-6.8-6.8-6.8H195.9c-3.7,0-6.8,3.1-6.8,6.8
		C189.1,220.6,192.2,223.6,195.9,223.6L195.9,223.6z M195.9,187.9h320.2c3.7,0,6.8-3.1,6.8-6.8c0-3.7-3.1-6.8-6.8-6.8H195.9
		c-3.7,0-6.8,3.1-6.8,6.8C189.1,184.9,192.2,187.9,195.9,187.9L195.9,187.9z M359.8,517.5h19c7.5,0,13.6,6.1,13.6,13.6v95
		c0,7.5-6.1,13.6-13.6,13.6h-19c-7.5,0-13.6-6.1-13.6-13.6v-95C346.2,523.5,352.3,517.5,359.8,517.5L359.8,517.5z M624.6,465.4h19
		c7.5,0,13.6,6.1,13.6,13.6V626c0,7.5-6.1,13.6-13.6,13.6h-19c-7.5,0-13.6-6.1-13.6-13.6V478.9C611.1,471.5,617.2,465.4,624.6,465.4
		z M558.4,506.1h19c7.5,0,13.6,6.1,13.6,13.6V626c0,7.5-6.1,13.6-13.6,13.6h-19c-7.5,0-13.6-6.1-13.6-13.6V519.6
		C544.9,512.2,551,506.1,558.4,506.1L558.4,506.1z M492.2,384h19c7.5,0,13.6,6.1,13.6,13.6V626c0,7.5-6.1,13.6-13.6,13.6h-19
		c-7.5,0-13.6-6.1-13.6-13.6V397.5C478.7,390,484.7,384,492.2,384z M426,465.4h19c7.5,0,13.6,6.1,13.6,13.6V626
		c0,7.5-6.1,13.6-13.6,13.6h-19c-7.5,0-13.6-6.1-13.6-13.6V478.9C412.4,471.4,418.5,465.4,426,465.4L426,465.4z"/>
	<path class="st1" d="M88.9,668.7c4.5,0,8.1,3.7,8.1,8.2v21.9c0,10.8-16.3,10.8-16.3,0v-21.9C80.7,672.4,84.4,668.7,88.9,668.7
		L88.9,668.7z M359.8,531h19v95h-19V531L359.8,531z M79.9,55.4h450.4v40.7H79.9L79.9,55.4L79.9,55.4z M624.6,478.9h19V626h-19V478.9
		z M558.4,519.6h19V626h-19V519.6L558.4,519.6z M492.2,397.5h19V626h-19V397.5z M426,478.9h19V626h-19V478.9L426,478.9z M95,332.9
		c52.5,0,95,42.5,95,95c0,52.5-42.5,95-95,95c-52.5,0-95-42.5-95-95S42.5,332.9,95,332.9z M95,346.5c45,0,81.4,36.4,81.4,81.4
		s-36.4,81.4-81.4,81.4s-81.4-36.4-81.4-81.4C13.6,383,50,346.5,95,346.5z M95,351.9c42,0,76,34,76,76s-34,76-76,76s-76-34-76-76
		S53,351.9,95,351.9z M110.6,443.4v14.2H85.3v17.3h-19v-17.3H60v-14.2h6.3v-7.7H60v-14.9h6.3V381c28.1,0,63.8-5.8,63.8,26.3
		c0,28.5-23,28.4-44.8,28.4v7.7L110.6,443.4L110.6,443.4z M85.3,420.7c13.3,0,25.3,1.1,25.3-12.2c0-13.7-13.3-11.7-25.3-11.7V420.7z
		 M40.8,545.2c4.5,0,8.1,3.7,8.1,8.2v21.9c0,10.8-16.3,10.8-16.3,0v-21.9C32.7,548.9,36.4,545.2,40.8,545.2L40.8,545.2z M70.9,545.2
		c4.5,0,8.1,3.7,8.1,8.2v21.9c0,10.8-16.3,10.8-16.3,0v-21.9C62.7,548.9,66.4,545.2,70.9,545.2L70.9,545.2z M100.9,545.2
		c4.5,0,8.1,3.7,8.1,8.2v21.9c0,10.8-16.3,10.8-16.3,0v-21.9C92.8,548.9,96.5,545.2,100.9,545.2L100.9,545.2z M131,545.2
		c4.5,0,8.1,3.7,8.1,8.2v21.9c0,10.8-16.3,10.8-16.3,0v-21.9C122.8,548.9,126.5,545.2,131,545.2L131,545.2z M161,545.2
		c4.5,0,8.1,3.7,8.1,8.2v21.9c0,10.8-16.3,10.8-16.3,0v-21.9C152.9,548.9,156.6,545.2,161,545.2L161,545.2z M6,539.9h189.9v48.8H6
		V539.9L6,539.9z M129.8,606.9c4.5,0,8.1,3.7,8.1,8.2V637c0,10.8-16.3,10.8-16.3,0v-21.9C121.7,610.6,125.4,606.9,129.8,606.9
		L129.8,606.9z M159.9,606.9c4.5,0,8.1,3.7,8.1,8.2V637c0,10.8-16.3,10.8-16.3,0v-21.9C151.7,610.6,155.4,606.9,159.9,606.9
		L159.9,606.9z M189.9,606.9c4.5,0,8.1,3.7,8.1,8.2V637c0,10.8-16.3,10.8-16.3,0v-21.9C181.8,610.6,185.5,606.9,189.9,606.9
		L189.9,606.9z M220,606.9c4.5,0,8.1,3.7,8.1,8.2V637c0,10.8-16.3,10.8-16.3,0v-21.9C211.8,610.6,215.5,606.9,220,606.9L220,606.9z
		 M250,606.9c4.5,0,8.1,3.7,8.1,8.2V637c0,10.8-16.3,10.8-16.3,0v-21.9C241.9,610.6,245.6,606.9,250,606.9L250,606.9z M95,601.7
		h189.9v48.8H95V601.7z M118.9,668.7c4.5,0,8.1,3.7,8.1,8.2v21.9c0,10.8-16.3,10.8-16.3,0v-21.9
		C110.8,672.4,114.4,668.7,118.9,668.7L118.9,668.7z M149,668.7c4.5,0,8.1,3.7,8.1,8.2v21.9c0,10.8-16.3,10.8-16.3,0v-21.9
		C140.8,672.4,144.5,668.7,149,668.7L149,668.7z M179,668.7c4.5,0,8.1,3.7,8.1,8.2v21.9c0,10.8-16.3,10.8-16.3,0v-21.9
		C170.9,672.4,174.5,668.7,179,668.7L179,668.7z M209.1,668.7c4.5,0,8.1,3.7,8.1,8.2v21.9c0,10.8-16.3,10.8-16.3,0v-21.9
		C200.9,672.4,204.6,668.7,209.1,668.7L209.1,668.7z M54,663.4h189.9v48.8H54V663.4z"/>
</g>
</svg>
