<?xml version="1.0" encoding="UTF-8"?>
<svg width="13.329mm" height="13.229mm" clip-rule="evenodd" fill-rule="evenodd" image-rendering="optimizeQuality" shape-rendering="geometricPrecision" text-rendering="geometricPrecision" version="1.1" viewBox="0 0 11.17 11.08" xmlns="http://www.w3.org/2000/svg">
 <defs>
  <style type="text/css"><![CDATA[
    .fil0 {fill:#383838}
    .fil1 {fill:#D13030}
   ]]></style>
 </defs>
 <path class="fil0" d="m5.4 10.33h4.78c0.06 0 0.11-0.05 0.11-0.11s-0.05-0.11-0.11-0.11h-4.78c-0.06 0-0.11 0.05-0.11 0.11s0.05 0.11 0.11 0.11zm-3.32-10.33h6.97l2.13 2.04v8.96l-7.17 0.08v-0.03-0.75h0.43c0.12 0 0.21-0.09 0.21-0.21v-0.76c0-0.12-0.09-0.21-0.21-0.21h-1.17v-0.75c0-0.12-0.09-0.21-0.21-0.21h-0.86c0.57-0.27 0.97-0.85 0.97-1.53 0-0.72-0.45-1.33-1.08-1.57v-3.37h6.16c0.12 0 0.21-0.09 0.21-0.21v-0.63c0-0.12-0.09-0.21-0.21-0.21h-6.16v-0.65zm0.97 2.36h3.41c0.06 0 0.11-0.05 0.11-0.11s-0.05-0.11-0.11-0.11h-3.41c-0.06 0-0.11 0.05-0.11 0.11s0.05 0.11 0.11 0.11zm0 2.77h7.12c0.06 0 0.11-0.05 0.11-0.11s-0.05-0.11-0.11-0.11h-7.12c-0.06 0-0.11 0.05-0.11 0.11s0.05 0.11 0.11 0.11zm0-0.55h7.12c0.06 0 0.11-0.05 0.11-0.11s-0.05-0.11-0.11-0.11h-7.12c-0.06 0-0.11 0.05-0.11 0.11s0.05 0.11 0.11 0.11zm0-0.55h7.12c0.06 0 0.11-0.05 0.11-0.11s-0.05-0.11-0.11-0.11h-7.12c-0.06 0-0.11 0.05-0.11 0.11s0.05 0.11 0.11 0.11zm0-0.55h7.12c0.06 0 0.11-0.05 0.11-0.11s-0.05-0.11-0.11-0.11h-7.12c-0.06 0-0.11 0.05-0.11 0.11s0.05 0.11 0.11 0.11zm0-0.55h4.97c0.06 0 0.11-0.05 0.11-0.11s-0.05-0.11-0.11-0.11h-4.97c-0.06 0-0.11 0.05-0.11 0.11s0.05 0.11 0.11 0.11zm2.54 5.12h0.29c0.12 0 0.21 0.09 0.21 0.21v1.47c0 0.12-0.09 0.21-0.21 0.21h-0.29c-0.12 0-0.21-0.09-0.21-0.21v-1.47c0-0.12 0.09-0.21 0.21-0.21zm4.11-0.81h0.29c0.12 0 0.21 0.09 0.21 0.21v2.28c0 0.12-0.09 0.21-0.21 0.21h-0.29c-0.12 0-0.21-0.09-0.21-0.21v-2.28c0-0.12 0.09-0.21 0.21-0.21zm-1.03 0.63h0.29c0.12 0 0.21 0.09 0.21 0.21v1.65c0 0.12-0.09 0.21-0.21 0.21h-0.29c-0.12 0-0.21-0.09-0.21-0.21v-1.65c0-0.12 0.09-0.21 0.21-0.21zm-1.03-1.9h0.29c0.12 0 0.21 0.09 0.21 0.21v3.55c0 0.12-0.09 0.21-0.21 0.21h-0.29c-0.12 0-0.21-0.09-0.21-0.21v-3.55c0-0.12 0.09-0.21 0.21-0.21zm-1.03 1.26h0.29c0.12 0 0.21 0.09 0.21 0.21v2.28c0 0.12-0.09 0.21-0.21 0.21h-0.29c-0.12 0-0.21-0.09-0.21-0.21v-2.28c0-0.12 0.09-0.21 0.21-0.21z"/>
 <path class="fil1" d="m1.38 10.38c0.07 0 0.13 0.06 0.13 0.13v0.34c0 0.17-0.25 0.17-0.25 0v-0.34c0-0.07 0.06-0.13 0.13-0.13zm4.21-2.14h0.29v1.47h-0.29v-1.47zm-4.34-7.38h6.99v0.63h-6.99v-0.63zm8.46 6.58h0.29v2.28h-0.29v-2.28zm-1.03 0.63h0.29v1.65h-0.29v-1.65zm-1.03-1.9h0.29v3.55h-0.29v-3.55zm-1.03 1.26h0.29v2.28h-0.29v-2.28zm-5.14-2.27c0.81 0 1.47 0.66 1.47 1.47s-0.66 1.47-1.47 1.47-1.47-0.66-1.47-1.47 0.66-1.47 1.47-1.47zm0 0.21c0.7 0 1.26 0.57 1.26 1.26 0 0.7-0.57 1.26-1.26 1.26-0.7 0-1.26-0.57-1.26-1.26 0-0.7 0.57-1.26 1.26-1.26zm0 0.08c0.65 0 1.18 0.53 1.18 1.18s-0.53 1.18-1.18 1.18-1.18-0.53-1.18-1.18 0.53-1.18 1.18-1.18zm0.24 1.42v0.22h-0.39v0.27h-0.3v-0.27h-0.1v-0.22h0.1v-0.12h-0.1v-0.23h0.1v-0.62c0.44 0 0.99-0.09 0.99 0.41 0 0.44-0.36 0.44-0.7 0.44v0.12h0.39zm-0.39-0.35c0.21 0 0.39 0.02 0.39-0.19s-0.21-0.18-0.39-0.18v0.37zm-0.69 1.93c0.07 0 0.13 0.06 0.13 0.13v0.34c0 0.17-0.25 0.17-0.25 0v-0.34c0-0.07 0.06-0.13 0.13-0.13zm0.47 0c0.07 0 0.13 0.06 0.13 0.13v0.34c0 0.17-0.25 0.17-0.25 0v-0.34c0-0.07 0.06-0.13 0.13-0.13zm0.47 0c0.07 0 0.13 0.06 0.13 0.13v0.34c0 0.17-0.25 0.17-0.25 0v-0.34c0-0.07 0.06-0.13 0.13-0.13zm0.47 0c0.07 0 0.13 0.06 0.13 0.13v0.34c0 0.17-0.25 0.17-0.25 0v-0.34c0-0.07 0.06-0.13 0.13-0.13zm0.47 0c0.07 0 0.13 0.06 0.13 0.13v0.34c0 0.17-0.25 0.17-0.25 0v-0.34c0-0.07 0.06-0.13 0.13-0.13zm-2.41-0.08h2.95v0.76h-2.95v-0.76zm1.92 1.04c0.07 0 0.13 0.06 0.13 0.13v0.34c0 0.17-0.25 0.17-0.25 0v-0.34c0-0.07 0.06-0.13 0.13-0.13zm0.47 0c0.07 0 0.13 0.06 0.13 0.13v0.34c0 0.17-0.25 0.17-0.25 0v-0.34c0-0.07 0.06-0.13 0.13-0.13zm0.47 0c0.07 0 0.13 0.06 0.13 0.13v0.34c0 0.17-0.25 0.17-0.25 0v-0.34c0-0.07 0.06-0.13 0.13-0.13zm0.47 0c0.07 0 0.13 0.06 0.13 0.13v0.34c0 0.17-0.25 0.17-0.25 0v-0.34c0-0.07 0.06-0.13 0.13-0.13zm0.47 0c0.07 0 0.13 0.06 0.13 0.13v0.34c0 0.17-0.25 0.17-0.25 0v-0.34c0-0.07 0.06-0.13 0.13-0.13zm-2.41-0.08h2.95v0.76h-2.95v-0.76zm0.37 1.04c0.07 0 0.13 0.06 0.13 0.13v0.34c0 0.17-0.25 0.17-0.25 0v-0.34c0-0.07 0.06-0.13 0.13-0.13zm0.47 0c0.07 0 0.13 0.06 0.13 0.13v0.34c0 0.17-0.25 0.17-0.25 0v-0.34c0-0.07 0.06-0.13 0.13-0.13zm0.47 0c0.07 0 0.13 0.06 0.13 0.13v0.34c0 0.17-0.25 0.17-0.25 0v-0.34c0-0.07 0.06-0.13 0.13-0.13zm0.47 0c0.07 0 0.13 0.06 0.13 0.13v0.34c0 0.17-0.25 0.17-0.25 0v-0.34c0-0.07 0.06-0.13 0.13-0.13zm-2.41-0.08h2.95v0.76h-2.95v-0.76z"/>
</svg>
