<svg xmlns="http://www.w3.org/2000/svg" viewBox="0 0 750 713.9">
  <path
    d="M347.7 665.1h308c3.7 0 6.8-3.1 6.8-6.8s-3.1-6.8-6.8-6.8h-308c-3.7 0-6.8 3.1-6.8 6.8s3.1 6.8 6.8 6.8zM133.7 0h448.6L750 167.6v546.3H257.4l.1-1.6v-48.2h27.4c7.5 0 13.6-6.1 13.6-13.6v-48.8c0-7.5-6.1-13.6-13.6-13.6h-75.4v-48.2c0-7.5-6.1-13.6-13.6-13.6h-55.1a108.7 108.7 0 0 0-7.1-199.8V109.6h396.6c7.5 0 13.6-6.1 13.6-13.6V55.4c0-7.5-6.1-13.6-13.6-13.6H133.7V0zm62.2 152.2h219.8c3.7 0 6.8-3.1 6.8-6.8s-3.1-6.8-6.8-6.8H195.9c-3.7 0-6.8 3.1-6.8 6.8s3.1 6.8 6.8 6.8zm0 178.6h458.6c3.7 0 6.8-3.1 6.8-6.8s-3.1-6.8-6.8-6.8H195.9c-3.7 0-6.8 3.1-6.8 6.8s3.1 6.8 6.8 6.8zm0-35.7h458.6c3.7 0 6.8-3.1 6.8-6.8s-3.1-6.8-6.8-6.8H195.9c-3.7 0-6.8 3.1-6.8 6.8s3.1 6.8 6.8 6.8zm0-35.7h458.6c3.7 0 6.8-3.1 6.8-6.8s-3.1-6.8-6.8-6.8H195.9c-3.7 0-6.8 3.1-6.8 6.8s3.1 6.8 6.8 6.8zm0-35.8h458.6c3.7 0 6.8-3.1 6.8-6.8s-3.1-6.8-6.8-6.8H195.9a6.9 6.9 0 0 0-6.8 6.8c0 3.8 3.1 6.8 6.8 6.8zm0-35.7h320.2c3.7 0 6.8-3.1 6.8-6.8s-3.1-6.8-6.8-6.8H195.9a6.9 6.9 0 0 0-6.8 6.8c0 3.8 3.1 6.8 6.8 6.8zm163.9 329.6h19c7.5 0 13.6 6.1 13.6 13.6v95c0 7.5-6.1 13.6-13.6 13.6h-19c-7.5 0-13.6-6.1-13.6-13.6v-95c0-7.6 6.1-13.6 13.6-13.6zm264.8-52.1h19c7.5 0 13.6 6.1 13.6 13.6v147c0 7.5-6.1 13.6-13.6 13.6h-19c-7.5 0-13.6-6.1-13.6-13.6V478.9c.1-7.4 6.2-13.5 13.6-13.5zm-66.2 40.7h19c7.5 0 13.6 6.1 13.6 13.6V626c0 7.5-6.1 13.6-13.6 13.6h-19c-7.5 0-13.6-6.1-13.6-13.6V519.6c.1-7.4 6.2-13.5 13.6-13.5zM492.2 384h19c7.5 0 13.6 6.1 13.6 13.6V626c0 7.5-6.1 13.6-13.6 13.6h-19c-7.5 0-13.6-6.1-13.6-13.6V397.5c.1-7.5 6.1-13.5 13.6-13.5zM426 465.4h19c7.5 0 13.6 6.1 13.6 13.6v147c0 7.5-6.1 13.6-13.6 13.6h-19c-7.5 0-13.6-6.1-13.6-13.6V478.9c0-7.5 6.1-13.5 13.6-13.5z"
    style="fill-rule:evenodd;clip-rule:evenodd;fill:#383838" />
  <path
    d="M88.9 668.7c4.5 0 8.1 3.7 8.1 8.2v21.9c0 10.8-16.3 10.8-16.3 0v-21.9c0-4.5 3.7-8.2 8.2-8.2zM359.8 531h19v95h-19v-95zM79.9 55.4h450.4v40.7H79.9V55.4zm544.7 423.5h19V626h-19V478.9zm-66.2 40.7h19V626h-19V519.6zm-66.2-122.1h19V626h-19V397.5zM426 478.9h19V626h-19V478.9zm-331-146a95 95 0 1 1 0 190 95 95 0 0 1 0-190zm0 13.6a81.3 81.3 0 1 1 .1 162.7 81.3 81.3 0 0 1-.1-162.7zm0 5.4a76 76 0 1 1 0 152 76 76 0 0 1 0-152zm15.6 91.5v14.2H85.3v17.3h-19v-17.3H60v-14.2h6.3v-7.7H60v-14.9h6.3V381c28.1 0 63.8-5.8 63.8 26.3 0 28.5-23 28.4-44.8 28.4v7.7h25.3zm-25.3-22.7c13.3 0 25.3 1.1 25.3-12.2 0-13.7-13.3-11.7-25.3-11.7v23.9zM40.8 545.2c4.5 0 8.1 3.7 8.1 8.2v21.9c0 10.8-16.3 10.8-16.3 0v-21.9a8.4 8.4 0 0 1 8.2-8.2zm30.1 0c4.5 0 8.1 3.7 8.1 8.2v21.9c0 10.8-16.3 10.8-16.3 0v-21.9c0-4.5 3.7-8.2 8.2-8.2zm30 0c4.5 0 8.1 3.7 8.1 8.2v21.9c0 10.8-16.3 10.8-16.3 0v-21.9a8.4 8.4 0 0 1 8.2-8.2zm30.1 0c4.5 0 8.1 3.7 8.1 8.2v21.9c0 10.8-16.3 10.8-16.3 0v-21.9c0-4.5 3.7-8.2 8.2-8.2zm30 0c4.5 0 8.1 3.7 8.1 8.2v21.9c0 10.8-16.3 10.8-16.3 0v-21.9a8.4 8.4 0 0 1 8.2-8.2zM6 539.9h189.9v48.8H6v-48.8zm123.8 67c4.5 0 8.1 3.7 8.1 8.2V637c0 10.8-16.3 10.8-16.3 0v-21.9a8.4 8.4 0 0 1 8.2-8.2zm30.1 0c4.5 0 8.1 3.7 8.1 8.2V637c0 10.8-16.3 10.8-16.3 0v-21.9c0-4.5 3.7-8.2 8.2-8.2zm30 0c4.5 0 8.1 3.7 8.1 8.2V637c0 10.8-16.3 10.8-16.3 0v-21.9a8.4 8.4 0 0 1 8.2-8.2zm30.1 0c4.5 0 8.1 3.7 8.1 8.2V637c0 10.8-16.3 10.8-16.3 0v-21.9c0-4.5 3.7-8.2 8.2-8.2zm30 0c4.5 0 8.1 3.7 8.1 8.2V637c0 10.8-16.3 10.8-16.3 0v-21.9a8.4 8.4 0 0 1 8.2-8.2zm-155-5.2h189.9v48.8H95v-48.8zm23.9 67c4.5 0 8.1 3.7 8.1 8.2v21.9c0 10.8-16.3 10.8-16.3 0v-21.9a8.3 8.3 0 0 1 8.2-8.2zm30.1 0c4.5 0 8.1 3.7 8.1 8.2v21.9c0 10.8-16.3 10.8-16.3 0v-21.9c0-4.5 3.7-8.2 8.2-8.2zm30 0c4.5 0 8.1 3.7 8.1 8.2v21.9c0 10.8-16.3 10.8-16.3 0v-21.9a8.3 8.3 0 0 1 8.2-8.2zm30.1 0c4.5 0 8.1 3.7 8.1 8.2v21.9c0 10.8-16.3 10.8-16.3 0v-21.9c0-4.5 3.7-8.2 8.2-8.2zM54 663.4h189.9v48.8H54v-48.8z"
    style="fill-rule:evenodd;clip-rule:evenodd;fill:#d13030" />
</svg>