<?xml version="1.0" standalone="no"?>
<!DOCTYPE svg PUBLIC "-//W3C//DTD SVG 20010904//EN"
 "http://www.w3.org/TR/2001/REC-SVG-20010904/DTD/svg10.dtd">
<svg version="1.0" xmlns="http://www.w3.org/2000/svg"
 width="916.000000pt" height="916.000000pt" viewBox="0 0 916.000000 916.000000"
 preserveAspectRatio="xMidYMid meet">
<metadata>
Created by potrace 1.14, written by Peter Selinger 2001-2017
</metadata>
<g transform="translate(0.000000,916.000000) scale(0.100000,-0.100000)"
fill="#000000" stroke="none">
<path d="M4080 8394 c-162 -19 -224 -29 -350 -54 -980 -197 -1822 -899 -2205
-1839 -201 -495 -270 -1046 -199 -1591 l6 -46 -57 -38 c-158 -104 -239 -253
-239 -436 1 -96 14 -136 65 -195 33 -38 117 -85 152 -85 25 0 22 -6 -28 -63
-59 -67 -117 -182 -123 -245 -4 -44 -1 -53 26 -83 27 -30 35 -33 83 -32 34 1
94 15 159 37 58 21 109 38 114 39 10 2 87 -183 81 -193 -3 -4 -22 -11 -42 -15
-199 -37 -319 -248 -237 -414 34 -67 94 -108 231 -155 131 -45 162 -61 167
-89 3 -12 7 -70 10 -129 7 -156 28 -221 90 -284 63 -62 115 -79 219 -71 40 3
94 13 121 23 l49 17 24 -29 c204 -246 486 -405 848 -478 595 -119 1385 -21
2205 275 74 27 135 49 137 49 2 0 3 -8 3 -17 0 -32 56 -137 98 -183 120 -134
331 -178 488 -100 145 71 233 199 242 350 4 71 2 85 -22 134 -25 50 -84 106
-114 106 -33 0 1 25 131 96 473 258 861 538 1158 834 235 234 380 445 475 690
88 228 100 496 32 722 -10 35 -9 39 30 85 74 89 122 214 122 319 0 68 -29 159
-68 217 -18 25 -32 48 -32 50 0 2 22 7 49 11 59 8 96 34 111 81 31 94 -81 271
-240 378 l-55 37 -1 93 c0 75 -6 109 -32 187 -79 238 -222 376 -424 410 -70
12 -266 9 -314 -5 -17 -5 -22 0 -33 37 -20 64 -50 120 -136 247 -297 441 -707
803 -1175 1037 -289 144 -574 233 -930 289 -101 16 -580 30 -670 19z m500
-124 c873 -75 1645 -523 2144 -1244 147 -212 183 -305 173 -441 -9 -108 -32
-167 -112 -286 -134 -198 -218 -294 -314 -358 -396 -266 -903 -512 -1395 -676
-617 -205 -1211 -288 -1752 -245 -458 37 -680 119 -902 334 -129 125 -215 263
-270 436 -45 142 -56 237 -49 435 15 398 125 832 298 1176 22 45 38 83 36 86
-7 7 -221 -230 -299 -331 -287 -370 -481 -794 -572 -1250 -50 -246 -60 -366
-53 -665 8 -375 32 -494 124 -628 40 -59 42 -64 16 -45 -56 40 -125 124 -154
187 -101 223 -103 807 -4 1247 178 790 693 1487 1400 1895 499 288 1106 422
1685 373z m2739 -1641 c83 -15 144 -45 198 -99 78 -80 153 -258 153 -366 0
-128 -111 -180 -601 -284 -348 -74 -424 -100 -482 -169 -38 -46 -41 -90 -12
-226 30 -145 31 -189 5 -290 -40 -156 -92 -235 -186 -281 -83 -41 -184 -43
-418 -9 -269 39 -337 28 -383 -65 -29 -56 -29 -82 2 -205 14 -55 28 -136 32
-181 24 -321 -178 -559 -461 -542 -93 6 -152 25 -440 140 -313 124 -417 141
-540 85 -67 -31 -128 -86 -211 -192 -137 -176 -297 -253 -505 -242 -181 9
-282 61 -472 244 -136 131 -156 142 -241 129 -82 -13 -127 -46 -287 -206 -221
-223 -293 -264 -455 -265 -108 0 -175 26 -195 76 -19 45 0 165 41 254 14 32
39 137 39 165 -1 44 -36 107 -71 125 -26 14 -46 16 -103 10 -85 -9 -150 -13
-311 -16 -142 -4 -200 15 -232 73 -29 55 -22 162 16 241 29 59 134 177 158
177 4 0 20 -22 34 -48 51 -90 142 -185 225 -234 106 -61 457 -170 592 -183 27
-2 91 -11 143 -19 183 -29 455 -46 639 -40 271 9 524 36 680 74 41 10 127 30
190 45 321 74 617 168 920 293 130 54 405 184 476 226 33 20 81 47 108 61 139
75 400 238 556 347 144 101 316 247 476 404 185 184 282 293 402 454 47 63 94
123 103 132 10 10 39 60 64 111 39 78 48 107 58 189 l11 97 46 6 c25 4 50 8
55 10 23 8 123 4 184 -6z m460 -700 c33 -22 79 -61 102 -87 42 -48 87 -127 77
-137 -3 -3 -63 -12 -134 -20 -158 -19 -250 -36 -419 -80 -187 -49 -459 -151
-626 -236 l-56 -28 -6 57 c-4 32 -15 95 -26 140 -11 46 -17 90 -14 99 12 32
131 68 383 118 322 64 523 125 605 185 22 16 43 29 46 30 4 0 34 -18 68 -41z
m38 -424 c46 -36 73 -86 85 -158 9 -53 7 -74 -7 -122 -41 -142 -150 -249 -348
-339 -163 -74 -180 -111 -181 -403 -1 -230 -4 -239 -87 -280 -45 -23 -80 -27
-409 -53 -197 -15 -304 -48 -412 -127 -46 -33 -188 -196 -283 -323 -61 -82
-159 -185 -206 -215 -56 -36 -125 -55 -215 -59 -84 -4 -84 -4 -92 22 -12 45
-8 322 7 414 l14 86 84 38 c232 103 762 402 1068 602 449 293 578 414 680 636
36 76 75 215 75 264 0 32 -4 31 125 55 27 5 63 -9 102 -38z m-1895 -711 l37
-7 -43 -51 c-24 -28 -71 -91 -105 -140 -44 -65 -61 -83 -61 -66 0 12 -12 73
-27 135 -14 62 -23 121 -19 130 6 16 16 17 94 12 48 -4 104 -10 124 -13z
m1850 -89 c16 -94 10 -127 -41 -228 -257 -500 -858 -1008 -1707 -1444 -122
-62 -224 -113 -228 -113 -3 0 -6 21 -7 48 0 26 -9 79 -20 117 -11 39 -22 79
-25 91 -5 20 1 22 113 39 337 50 502 165 729 506 140 211 176 233 412 254 86
8 172 18 190 24 55 16 220 120 242 151 32 45 58 110 65 165 4 28 17 84 30 125
13 41 31 103 39 138 9 34 23 73 32 87 18 27 130 87 154 83 8 -2 18 -20 22 -43z
m-6012 -613 c0 -5 -7 -32 -15 -60 -12 -40 -20 -52 -35 -52 -11 0 -119 -36
-241 -80 -122 -44 -224 -79 -226 -76 -2 2 7 26 20 53 29 56 90 128 149 175 39
30 49 33 133 39 148 9 215 9 215 1z m2632 -56 c36 -8 142 -45 235 -81 366
-146 487 -176 635 -156 64 8 104 21 173 55 49 24 91 43 93 42 1 -2 -3 -37 -9
-77 -7 -46 -9 -139 -6 -244 5 -190 21 -268 87 -434 47 -117 59 -195 36 -238
-18 -36 -33 -43 -89 -43 -64 1 -120 32 -211 119 -137 131 -178 131 -329 -1
-148 -128 -240 -162 -425 -156 -98 3 -113 6 -176 37 -105 51 -189 139 -382
398 -96 128 -199 262 -230 298 -31 37 -54 67 -52 68 1 1 33 17 69 35 94 47
172 114 264 226 91 111 119 135 184 152 59 16 54 16 133 0z m3197 -46 c-40
-70 -163 -228 -258 -331 -336 -361 -923 -762 -1534 -1048 l-153 -71 -48 16
c-26 9 -44 20 -39 24 4 3 58 28 118 55 150 65 474 229 622 314 575 330 993
667 1251 1009 30 39 56 72 59 72 2 0 -6 -18 -18 -40z m-5924 -592 c48 -73 117
-148 192 -208 244 -197 517 -252 908 -185 83 15 191 33 240 41 153 25 591 127
791 184 l64 19 70 -96 c38 -53 69 -98 67 -99 -1 -2 -36 2 -76 7 -197 27 -342
-52 -440 -240 -52 -100 -105 -156 -162 -171 -78 -21 -146 8 -206 90 -101 136
-116 152 -156 170 -91 42 -175 21 -357 -89 -272 -165 -519 -271 -629 -271
-114 0 -141 45 -148 250 -8 205 -28 231 -247 310 -155 56 -186 80 -186 139 0
82 54 149 143 177 78 24 101 19 132 -28z m3751 -630 c55 -26 82 -32 134 -33
36 0 76 3 90 7 19 6 18 4 -5 -7 -39 -19 -93 -19 -165 0 -56 14 -61 14 -112 -6
-298 -118 -741 -244 -998 -284 -141 -22 -400 -31 -470 -16 -83 18 -137 48
-169 94 -56 82 -50 149 21 212 69 63 159 85 264 66 60 -11 88 -24 225 -99 97
-54 200 -89 305 -104 165 -24 350 35 506 161 115 92 182 181 137 181 -6 0 -41
-28 -77 -62 l-67 -62 73 74 73 73 83 -81 c60 -59 102 -91 152 -114z m-386 49
c0 -2 -10 -12 -22 -23 l-23 -19 19 23 c18 21 26 27 26 19z m-2625 -339 c408
-339 1122 -432 1985 -258 295 60 624 155 928 268 70 26 83 29 77 14 -3 -9 -9
-30 -12 -45 -7 -33 -7 -33 -264 -121 -361 -124 -717 -210 -1069 -258 -225 -30
-694 -33 -865 -5 -352 58 -585 162 -777 346 -74 70 -94 101 -65 101 7 0 35
-19 62 -42z m3630 -32 c52 -22 69 -56 61 -122 -9 -77 -40 -137 -97 -188 -190
-171 -489 -32 -489 227 0 79 6 84 70 62 82 -29 147 -29 235 -2 125 40 168 44
220 23z"/>
<path d="M5837 7292 c-33 -36 -8 -92 40 -92 25 0 53 30 53 57 0 46 -62 69 -93
35z"/>
<path d="M5402 6764 c-40 -28 -16 -94 35 -94 46 0 69 62 35 93 -23 21 -41 21
-70 1z"/>
<path d="M6440 6710 c-11 -11 -20 -28 -20 -38 0 -41 69 -69 98 -40 20 20 14
65 -10 82 -30 21 -44 20 -68 -4z"/>
<path d="M3890 6220 c-11 -11 -20 -26 -20 -33 0 -24 31 -57 55 -57 50 0 73 60
37 93 -25 22 -48 21 -72 -3z"/>
<path d="M5322 5834 c-24 -17 -30 -62 -10 -82 17 -17 64 -15 83 4 19 20 13 62
-12 82 -22 16 -34 15 -61 -4z"/>
<path d="M2902 5638 c-6 -6 -12 -27 -12 -45 0 -26 6 -36 25 -45 51 -23 96 23
71 74 -13 26 -64 36 -84 16z"/>
</g>
</svg>
