<?xml version="1.0" encoding="UTF-8"?>
<!DOCTYPE svg PUBLIC "-//W3C//DTD SVG 1.1//EN" "http://www.w3.org/Graphics/SVG/1.1/DTD/svg11.dtd">
<!-- Creator: CorelDRAW 2019 (64-Bit) -->
<svg xmlns="http://www.w3.org/2000/svg" xml:space="preserve" width="210mm" height="210mm" version="1.1" style="shape-rendering:geometricPrecision; text-rendering:geometricPrecision; image-rendering:optimizeQuality; fill-rule:evenodd; clip-rule:evenodd"
viewBox="0 0 21000 21000"
 xmlns:xlink="http://www.w3.org/1999/xlink"
 xmlns:xodm="http://www.corel.com/coreldraw/odm/2003">
 <defs>
  <style type="text/css">
   <![CDATA[
    .fil0 {fill:#FF7020;fill-rule:nonzero}
   ]]>
  </style>
 </defs>
 <g id="Слой_x0020_1">
  <metadata id="CorelCorpID_0Corel-Layer"/>
  <path class="fil0" d="M10500 0c-5798.92,0 -10500,4701.08 -10500,10500 0,5798.92 4701.08,10500 10500,10500 5798.92,0 10500,-4701.08 10500,-10500 0,-5798.92 -4701.08,-10500 -10500,-10500zm4037.83 11846.33c0,0 928.67,916.42 1157.33,1341.67 7,9.33 9.92,17.5 11.67,22.17 93.33,156.33 115.5,277.67 69.42,368.67 -76.42,151.08 -338.92,225.17 -428.75,232.17l-1640.92 -0.01c-113.75,0 -351.75,-29.75 -640.5,-228.67 -221.67,-155.75 -441,-410.08 -654.5,-658.58 -317.92,-369.83 -593.83,-688.92 -871.5,-688.92 -35,0 -70,5.83 -103.83,16.33 -210,67.67 -478.92,367.5 -478.92,1166.08 0,249.08 -197.17,392.58 -336,392.58l-751.33 0.01c-256.08,0 -1589,-89.83 -2770.83,-1335.83 -1445.5,-1525.42 -2747.5,-4585.58 -2758,-4614.17 -81.67,-198.33 87.5,-303.92 272.42,-303.92l1656.66 0.01c221.67,0 293.42,134.17 344.17,253.17 58.33,139.42 275.33,691.25 630.58,1312.5 576.33,1013.25 929.83,1424.5 1213.33,1424.5 52.98,-0.75 105.12,-14.41 151.66,-39.7 369.83,-205.33 301,-1523.67 284.67,-1796.67 0,-51.33 -1.17,-589.75 -190.75,-848.17 -135.33,-186.67 -366.33,-257.83 -506.33,-284.08 56.54,-78.14 131.36,-141.67 217.62,-184.87 253.75,-126.58 711.08,-145.83 1164.92,-145.83l252.55 -0.02c492.33,7 618.92,38.5 797.42,83.42 361.08,86.33 368.67,319.67 337.17,1117.08 -9.92,226.33 -19.83,481.83 -19.83,784 0,65.92 -3.5,135.92 -3.5,210 -10.5,406 -23.92,866.25 262.5,1055.83 37.33,23.33 80.5,35.58 124.83,35.58 99.17,0 399,0 1211,-1392.42 250.25,-448 467.25,-913.5 650.42,-1393 16.33,-29.17 64.17,-116.67 121.33,-149.92 41.07,-21.06 86.66,-32.08 132.86,-32.08 1,0 2.03,0 3.02,0l1948.36 0.01c211.75,0 357,32.08 385,113.75 47.83,130.08 -9.33,527.33 -898.33,1731.92l-396.67 523.83c-806.75,1055.83 -806.75,1110.08 49.58,1911.58z"/>
 </g>
</svg>
