<?xml version="1.0" encoding="UTF-8"?> <svg xmlns="http://www.w3.org/2000/svg" width="1536" height="1600" viewBox="0 0 1536 1600" fill="none"> <path d="M751.664 448.002C831.015 448.002 902.89 480.137 954.953 532.093C1007.07 584.11 1039.31 655.897 1039.31 735.128C1039.31 814.364 1007.07 886.154 954.953 938.175C902.891 990.137 831.015 1022.27 751.664 1022.27C672.316 1022.27 600.446 990.137 548.388 938.175C496.271 886.155 464.037 814.363 464.037 735.128C464.037 655.897 496.271 584.111 548.388 532.093C600.446 480.137 672.315 448.002 751.664 448.002ZM914.465 572.807C872.848 531.274 815.295 505.586 751.664 505.586C688.039 505.586 630.49 531.274 588.876 572.807C547.322 614.28 521.622 671.663 521.622 735.128C521.622 798.597 547.321 855.986 588.876 897.462C630.49 938.999 688.039 964.689 751.664 964.689C815.292 964.689 872.848 938.999 914.465 897.462C956.023 855.984 981.724 798.597 981.724 735.128C981.724 671.664 956.023 614.281 914.465 572.807Z" fill="#383838"></path> <path d="M128.003 964.243C128.003 947.205 134.291 931.459 144.704 919.237L144.765 919.29C149.033 914.293 153.993 909.904 159.497 906.277V564.493C153.981 560.869 149.009 556.476 144.731 551.467L144.67 551.52C134.278 539.32 128.003 523.606 128.003 506.497V374.765C128.003 357.73 134.294 341.985 144.705 329.766C148.97 324.761 153.953 320.364 159.497 316.735V220.438C159.497 195.138 169.839 172.166 186.563 155.475C203.22 138.851 226.176 128.567 251.484 128.567H1283.34C1308.65 128.567 1331.61 138.851 1348.26 155.475C1364.99 172.166 1375.33 195.138 1375.33 220.438V1250.31C1375.33 1275.61 1364.99 1298.58 1348.26 1315.27C1331.61 1331.89 1308.65 1342.18 1283.34 1342.18H251.484C226.176 1342.18 203.22 1331.89 186.563 1315.27C169.839 1298.58 159.497 1275.61 159.497 1250.31V1154.04C153.94 1150.41 148.945 1146.02 144.668 1141C134.277 1128.8 128.003 1113.09 128.003 1095.98V964.248V964.243ZM193.205 960.736C192.458 961.613 192.005 962.836 192.005 964.243V1095.98C192.005 1097.42 192.444 1098.64 193.169 1099.49C194.047 1100.52 195.221 1101.23 196.498 1101.44L223.499 1105.74V1132.94V1250.3C223.499 1258.08 226.58 1265.04 231.563 1270.02C236.613 1275.05 243.652 1278.17 251.484 1278.17H1283.34C1291.18 1278.17 1298.22 1275.05 1303.26 1270.02C1308.25 1265.04 1311.33 1258.08 1311.33 1250.3V220.433C1311.33 212.657 1308.25 205.692 1303.26 200.72C1298.22 195.681 1291.18 192.563 1283.34 192.563H251.484C243.652 192.563 236.613 195.681 231.563 200.72C226.58 205.692 223.499 212.657 223.499 220.433V337.799V364.997L196.498 369.299C195.257 369.496 194.095 370.216 193.206 371.26C192.458 372.138 192.005 373.359 192.005 374.76V506.492C192.005 507.94 192.445 509.164 193.17 510.015V510.139C193.974 511.083 195.143 511.749 196.498 511.964L223.499 516.268V543.464V927.266V954.461L196.498 958.766C195.178 958.976 194.018 959.651 193.205 960.608V960.732V960.736Z" fill="#383838"></path> <path d="M873.684 735.125C873.684 768.703 859.975 799.174 837.815 821.29C815.72 843.343 785.253 856.982 751.651 856.982C718.06 856.982 687.597 843.341 665.508 821.288C643.351 799.171 629.646 768.701 629.646 735.125C629.646 701.562 643.353 671.095 665.51 648.981C687.603 626.933 718.062 613.293 751.651 613.293C785.251 613.293 815.718 626.931 837.812 648.979C859.976 671.092 873.684 701.558 873.684 735.125ZM792.815 776.04C803.235 765.64 809.682 751.179 809.682 735.125C809.682 719.085 803.234 704.628 792.812 694.23C782.328 683.767 767.777 677.295 751.651 677.295C735.538 677.295 720.995 683.768 710.51 694.232C700.093 704.629 693.648 719.085 693.648 735.125C693.648 751.179 700.091 765.639 710.508 776.037C720.992 786.504 735.536 792.98 751.651 792.98C767.778 792.98 782.328 786.505 792.815 776.04Z" fill="#383838"></path> <path d="M321.145 1438.73V1536H489.191V1438.73V1406.73H521.192H1014.81H1046.81V1438.73V1536H1214.86V1438.73V1406.73H1246.86H1394.94C1407.67 1406.73 1419.16 1401.62 1427.44 1393.36C1435.65 1385.16 1440.73 1373.76 1440.73 1361.1V109.637C1440.73 96.9744 1435.65 85.5697 1427.44 77.3752C1419.16 69.1146 1407.67 64.0016 1394.94 64.0016H141.054C128.326 64.0016 116.837 69.1146 108.561 77.3752C100.351 85.5697 95.2682 96.9744 95.2682 109.637V1361.1C95.2682 1373.76 100.351 1385.16 108.561 1393.36C116.837 1401.62 128.326 1406.73 141.054 1406.73H289.141H321.142V1438.73H321.145ZM257.143 1558.14V1470.73H141.057C110.853 1470.73 83.4459 1458.45 63.5644 1438.61C43.6167 1418.7 31.2695 1391.28 31.2695 1361.1V109.637C31.2695 79.4505 43.6168 52.0335 63.5644 32.1248C83.4459 12.2823 110.853 0 141.057 0H1394.95C1425.15 0 1452.56 12.2823 1472.44 32.1248C1492.39 52.0335 1504.74 79.4504 1504.74 109.637V1361.1C1504.74 1391.28 1492.39 1418.7 1472.44 1438.61C1452.56 1458.45 1425.15 1470.73 1394.95 1470.73H1278.86V1558.14C1278.86 1571.28 1272.65 1582.63 1262.61 1590.36C1254.88 1596.31 1244.75 1600 1234.05 1600H1027.63C1016.94 1600 1006.8 1596.32 999.067 1590.36C989.022 1582.63 982.812 1571.28 982.812 1558.14V1470.73H553.195V1558.14C553.195 1571.28 546.985 1582.63 536.941 1590.36C529.204 1596.32 519.067 1600 508.38 1600H301.953C291.261 1600 281.129 1596.31 273.398 1590.36C263.36 1582.63 257.146 1571.28 257.146 1558.14H257.143Z" fill="#383838"></path> </svg> 